<?xml version="1.0" encoding="UTF-8" standalone="no"?>
<!-- Created with Inkscape (http://www.inkscape.org/) -->

<svg
   xmlns:dc="http://purl.org/dc/elements/1.1/"
   xmlns:cc="http://creativecommons.org/ns#"
   xmlns:rdf="http://www.w3.org/1999/02/22-rdf-syntax-ns#"
   xmlns:svg="http://www.w3.org/2000/svg"
   xmlns="http://www.w3.org/2000/svg"
   xmlns:sodipodi="http://sodipodi.sourceforge.net/DTD/sodipodi-0.dtd"
   xmlns:inkscape="http://www.inkscape.org/namespaces/inkscape"
   width="744.09448"
   height="1052.3622"
   id="svg2"
   version="1.1"
   inkscape:version="0.48.3.1 r9886"
   sodipodi:docname="Invitation.svg">
  <defs
     id="defs4">
    <linearGradient
       id="linearGradient3856">
      <stop
         style="stop-color:#020031;stop-opacity:1;"
         offset="0"
         id="stop3858" />
      <stop
         style="stop-color:#6d3353;stop-opacity:1;"
         offset="1"
         id="stop3860" />
    </linearGradient>
  </defs>
  <sodipodi:namedview
     id="base"
     pagecolor="#ffffff"
     bordercolor="#666666"
     borderopacity="1.0"
     inkscape:pageopacity="0.0"
     inkscape:pageshadow="2"
     inkscape:zoom="1.7275421"
     inkscape:cx="400.96946"
     inkscape:cy="650.99606"
     inkscape:document-units="px"
     inkscape:current-layer="layer6"
     showgrid="false"
     units="mm"
     height="99mm"
     inkscape:window-width="1920"
     inkscape:window-height="1056"
     inkscape:window-x="0"
     inkscape:window-y="24"
     inkscape:window-maximized="1"
     showguides="true"
     inkscape:guide-bbox="true" />
  <metadata
     id="metadata7">
    <rdf:RDF>
      <cc:Work
         rdf:about="">
        <dc:format>image/svg+xml</dc:format>
        <dc:type
           rdf:resource="http://purl.org/dc/dcmitype/StillImage" />
        <dc:title />
      </cc:Work>
    </rdf:RDF>
  </metadata>
  <g
     inkscape:groupmode="layer"
     id="layer2"
     inkscape:label="Outline"
     transform="translate(0,308.26775)"
     style="display:inline">
    <rect
       style="fill:#cccccc;stroke:none"
       id="rect3756"
       width="669.70087"
       height="301.16272"
       x="35.091759"
       y="-268.25879" />
  </g>
  <g
     inkscape:label="Ticket Background"
     inkscape:groupmode="layer"
     id="layer1"
     transform="translate(0,5.2302535e-5)"
     style="display:inline">
    <rect
       style="fill:#ffffff;fill-opacity:0.94117647;stroke:none"
       id="rect2985"
       width="669.70087"
       height="301.16272"
       x="35.091759"
       y="40.00885"
       rx="21.259842"
       ry="21.259842" />
  </g>
  <g
     inkscape:groupmode="layer"
     id="layer3"
     inkscape:label="Grid"
     style="display:inline"
     transform="translate(0,701.57482)">
    <rect
       style="fill:none;stroke:#000000;stroke-width:0.7787376;stroke-miterlimit:4;stroke-dasharray:none;display:inline"
       id="rect2985-4"
       width="637.013"
       height="269.98166"
       x="51.435684"
       y="-645.97534"
       rx="21.259842"
       ry="21.259842" />
    <path
       style="fill:none;stroke:#000000;stroke-width:0.8666845px;stroke-linecap:butt;stroke-linejoin:miter;stroke-opacity:1"
       d="m 115.26174,-645.88511 0,269.7998"
       id="path3778"
       inkscape:connector-curvature="0" />
    <path
       inkscape:connector-curvature="0"
       id="path3780"
       d="m 625.51001,-645.88512 0,269.79981"
       style="fill:none;stroke:#000000;stroke-width:0.8666845px;stroke-linecap:butt;stroke-linejoin:miter;stroke-opacity:1" />
    <path
       style="fill:none;stroke:#000000;stroke-width:0.77919668px;stroke-linecap:butt;stroke-linejoin:miter;stroke-opacity:1"
       d="m 114.66288,-606.01328 510.55706,0"
       id="path3782"
       inkscape:connector-curvature="0" />
    <path
       inkscape:connector-curvature="0"
       id="path3784"
       d="m 114.66288,-500.3731 510.55706,0"
       style="fill:#800080;stroke:#000000;stroke-width:0.77919668px;stroke-linecap:butt;stroke-linejoin:miter;stroke-opacity:1" />
    <path
       style="fill:none;stroke:#000000;stroke-width:0.77919668px;stroke-linecap:butt;stroke-linejoin:miter;stroke-opacity:1"
       d="m 114.66288,-398.80929 510.55706,0"
       id="path3786"
       inkscape:connector-curvature="0" />
    <path
       style="fill:none;stroke:#000000;stroke-width:0.77867061;stroke-linecap:butt;stroke-linejoin:miter;stroke-miterlimit:4;stroke-opacity:1;stroke-dasharray:none"
       d="m 369.90241,-500.66495 0,101.52157"
       id="path3791"
       inkscape:connector-curvature="0" />
    <path
       style="fill:none;stroke:#000000;stroke-width:0.77867061;stroke-linecap:butt;stroke-linejoin:miter;stroke-miterlimit:4;stroke-opacity:1;stroke-dasharray:none"
       d="m 115.27956,-443.58136 254.88267,0"
       id="path3902"
       inkscape:connector-curvature="0" />
    <path
       inkscape:connector-curvature="0"
       id="path3904"
       d="m 369.9922,-473.28646 255.25246,0"
       style="fill:none;stroke:#000000;stroke-width:0.72211772;stroke-linecap:butt;stroke-linejoin:miter;stroke-miterlimit:4;stroke-opacity:1;stroke-dasharray:none" />
    <rect
       transform="matrix(0.7235875,0.69023266,-0.7235875,0.69023266,0,0)"
       ry="0"
       y="-889.17517"
       x="19.062504"
       height="3.1804483"
       width="3.1804483"
       id="rect3802"
       style="fill:#999999;fill-opacity:0.94117647000000004;stroke:#999999;stroke-width:0.39755604000000000;stroke-linejoin:round;stroke-miterlimit:4;stroke-opacity:1;stroke-dasharray:none;stroke-dashoffset:0" />
    <rect
       style="fill:#808080;fill-opacity:0.94117647000000004;stroke:#441650;stroke-width:0.39755604000000000;stroke-linejoin:round;stroke-miterlimit:4;stroke-opacity:1;stroke-dasharray:none;stroke-dashoffset:0"
       id="rect3804"
       width="3.1804483"
       height="3.1804483"
       x="144.96233"
       y="-763.27588"
       ry="0"
       transform="matrix(0.7235875,0.69023266,-0.7235875,0.69023266,0,0)" />
    <rect
       transform="matrix(0.7235875,0.69023266,-0.7235875,0.69023266,0,0)"
       ry="0"
       y="-361.06204"
       x="-247.26706"
       height="3.1804483"
       width="3.1804483"
       id="rect3806"
       style="fill:#808080;fill-opacity:0.94117647000000004;stroke:#808080;stroke-width:0.39755604000000000;stroke-linejoin:round;stroke-miterlimit:4;stroke-opacity:1;stroke-dasharray:none;stroke-dashoffset:0" />
    <rect
       style="fill:#999999;fill-opacity:0.94117647000000004;stroke:#999999;stroke-width:0.39755604000000000;stroke-linejoin:round;stroke-miterlimit:4;stroke-opacity:1;stroke-dasharray:none;stroke-dashoffset:0"
       id="rect3808"
       width="3.1804483"
       height="3.1804483"
       x="-382.10873"
       y="-495.90375"
       ry="0"
       transform="matrix(0.7235875,0.69023266,-0.7235875,0.69023266,0,0)" />
  </g>
  <g
     inkscape:groupmode="layer"
     id="layer7"
     inkscape:label="Natalie + Colin 2"
     style="display:inline"
     transform="translate(0,701.57482)">
    <path
       style="fill:#520463;fill-opacity:1"
       d="m 160.39159,-605.60021 c 13.34338,7.64082 28.29468,11.30316 43.22914,10.40971 12.00883,-0.71841 22.02204,-2.81465 46.32299,-9.73899 0.86312,-0.24594 1.56329,-0.43725 2.39066,-0.67072 l -13.07841,0 c -26.17391,6.36614 -31.08471,7.04923 -43.17291,7.10973 -6.88679,0.0344 -11.15078,-0.28206 -15.18786,-1.1 -5.87848,-1.19102 -11.84783,-3.25909 -17.49415,-6.00973 l -3.00946,0 z m 173.31034,0 c 7.32974,5.27883 10.50758,12.5175 8.49397,20.52431 -0.65264,2.59509 -1.1767,3.29074 -3.20634,4.3195 -3.53175,1.79012 -10.92048,7.49815 -17.35354,13.4414 -5.36722,4.95859 -5.81767,5.24679 -10.23774,6.17072 -6.34349,1.32598 -19.53246,0.82212 -28.57568,-1.07316 -3.72527,-0.78076 -6.77827,-1.63695 -6.77827,-1.90488 0,-0.26793 2.2618,-2.20825 5.03449,-4.31949 l 5.06262,-3.83658 -3.93759,0 c -3.84735,0 -4.04657,0.0857 -7.98769,3.48779 l -4.02196,3.46097 -7.81895,-2.25365 c -10.09216,-2.92536 -21.99878,-5.68914 -28.6038,-6.65363 -4.48754,-0.65531 -5.25942,-0.96558 -5.42824,-2.09268 -0.263,-1.75559 -3.79893,-2.03672 -9.16898,-0.72439 -2.21294,0.54079 -4.90166,0.99268 -5.96264,0.99268 -1.06097,0 -1.83464,0.30467 -1.74378,0.67073 0.0909,0.36606 -1.52437,1.31249 -3.57197,2.11951 l -3.71259,1.4756 -0.33751,-2.44145 c -0.51448,-3.65902 -2.76697,-6.57658 -6.30015,-8.23656 -2.76052,-1.29698 -4.04007,-1.46071 -11.36277,-1.44878 -9.48327,0.0155 -16.52347,1.21391 -25.20059,4.3195 -18.1409,6.49275 -31.92314,19.43319 -27.19752,25.51454 7.20451,9.2714 41.70472,-2.75308 52.73562,-18.37799 2.89259,-4.09724 2.28063,-5.10782 -0.87189,-1.42194 -8.88802,10.39178 -30.71545,21.25449 -42.86351,21.3292 -6.13287,0.0377 -8.15644,-1.08353 -8.15644,-4.48048 0,-2.70518 0.95364,-4.23878 5.23137,-8.53168 5.46473,-5.4841 14.94215,-10.80997 24.91934,-14.00482 15.04342,-4.81713 31.82863,-4.62777 34.65083,0.40244 1.01928,1.81676 0.92824,6.46067 -0.16877,8.5585 -0.53517,1.02341 -3.42025,3.02816 -7.79081,5.41949 -24.63513,13.47897 -44.85703,29.89344 -40.24782,32.67793 2.80081,1.69202 12.90751,-0.3769 21.40363,-4.39998 14.00423,-6.63126 27.24174,-19.97582 30.17885,-30.4511 0.76916,-2.74332 1.0835,-3.06226 4.58447,-4.56097 3.93441,-1.68427 13.1413,-2.63078 16.67853,-1.71707 1.56156,0.40338 1.09445,0.87894 -6.83455,6.94876 -19.98749,15.30087 -28.60741,27.27689 -27.53502,38.23156 0.21219,2.16756 1.04899,5.22956 1.8563,6.81462 l 1.46253,2.87072 -3.54384,3.0317 c -5.21835,4.47115 -10.00157,12.1398 -9.73148,14.9975 l 2.47506,0 c 0.005,-0.0653 -3e-5,-0.11778 0,-0.1878 0.002,-3.09155 6.08173,-12.28303 10.09712,-15.2658 l 1.82817,-1.34146 2.58756,2.22682 c 1.42797,1.23063 3.73958,2.79082 5.11886,3.46096 13.85435,6.73139 37.21971,3.88652 43.14478,-5.25852 4.52735,-6.98773 -2.35605,-11.81505 -16.79102,-11.75117 -10.70019,0.0474 -19.73268,2.20526 -29.22256,6.94875 l -4.97825,2.49512 -0.87189,-2.01219 c -3.9811,-9.11735 -0.85632,-14.69091 19.54733,-34.85109 6.4591,-6.38203 12.58845,-12.86507 13.61282,-14.40726 1.02435,-1.5422 2.29552,-2.80582 2.8407,-2.81707 5.20624,-0.10757 37.2002,7.07413 39.20716,8.79997 0.2943,0.25307 -2.83658,3.24345 -6.94703,6.65363 -10.89676,9.04035 -17.89008,15.91218 -19.77234,19.47798 -1.57307,2.98005 -1.87573,3.20034 -6.24391,4.53412 -7.20188,2.19903 -9.67734,1.78081 -8.07206,-1.36828 0.35345,-0.69338 4.7688,-5.2317 9.81587,-10.08777 l 9.19708,-8.8268 -7.76268,0.21464 c -11.32317,0.30795 -17.00233,1.921 -24.04744,6.81461 -3.52728,2.45009 -7.6252,7.81304 -8.24082,10.78532 -1.17263,5.6615 5.11898,5.01469 15.41286,-1.58292 5.78542,-3.70801 5.97016,-3.75082 3.65633,-1.07316 -2.64397,3.05973 -2.83015,5.52311 -0.50625,6.97558 1.96637,1.22904 5.91998,0.83579 11.419,-1.12682 3.24811,-1.15924 3.65517,-1.16512 4.72512,-0.24146 0.64102,0.55337 1.81662,0.99267 2.64382,0.99267 1.87266,0 6.75048,-2.3098 11.84091,-5.60729 l 3.88133,-2.49512 -1.06877,2.79024 c -2.62129,6.95346 3.89333,6.8714 14.9066,-0.1878 5.81557,-3.72763 6.02827,-3.77982 3.71258,-1.1 -2.64396,3.05973 -2.83014,5.52311 -0.50625,6.97558 1.95291,1.22062 5.9969,0.83195 11.22214,-1.07317 3.13411,-1.14268 3.41516,-1.14626 5.40012,-0.13415 2.88812,1.47266 5.76504,0.55327 13.41595,-4.239 l 6.04701,-3.78291 -1.68754,2.7634 c -2.03789,3.31711 -2.12098,4.89939 -0.3375,6.439 1.23476,1.06594 1.67894,1.08748 5.42825,0.34878 2.25192,-0.44369 5.8585,-1.49795 8.0158,-2.33413 4.624,-1.79229 4.3595,-1.75128 4.3595,-0.61708 0,1.90929 2.00881,2.89755 5.93451,2.89755 8.22446,0 15.91765,-3.60876 30.65696,-14.38043 l 8.49396,-6.22437 4.2751,1.12683 c 2.3518,0.62207 6.03416,1.32402 8.18456,1.55609 2.15041,0.23207 3.90947,0.58514 3.90947,0.77804 0,0.19289 -0.56169,0.92085 -1.26564,1.63658 -1.16268,1.18206 -1.83482,1.27898 -7.31268,0.99269 -5.71374,-0.29861 -6.11219,-0.23935 -7.48143,1.18048 l -1.43441,1.50243 6.41265,-0.29512 c 7.36169,-0.35141 7.41073,-0.28867 2.33443,4.42681 -2.26947,2.10816 -2.88288,3.07291 -2.6438,4.26584 0.16945,0.84567 0.53694,1.52926 0.81563,1.52926 0.27869,0 2.33304,-2.39311 4.55636,-5.31217 l 4.0501,-5.31218 6.10327,0.34878 c 5.75311,0.32243 6.18115,0.27237 7.42518,-1.07317 l 1.3219,-1.44877 -6.41265,0.37561 -6.44078,0.34878 1.15315,-1.50243 c 1.03977,-1.36445 1.64806,-1.50137 6.44079,-1.52927 5.03718,-0.0293 15.09241,-0.85305 20.22234,-1.63658 l 2.39069,-0.34878 -1.20942,3.35364 c -0.66724,1.8429 -1.22573,4.13302 -1.23753,5.09755 -0.0546,4.4371 3.7856,8.62336 9.36585,10.19509 l 2.8407,0.80486 -0.22501,4.02439 c -0.5895,11.50946 7.27775,20.72802 20.10985,23.60967 5.53432,1.24281 17.60015,0.90465 23.70993,-0.67074 5.53921,-1.42824 16.63434,-6.69001 20.08173,-9.52435 2.50492,-2.05947 2.73838,-2.4773 1.82818,-3.11218 -0.86475,-0.60318 -1.65073,-0.1879 -4.52824,2.36097 -4.32454,3.83063 -13.82816,8.39815 -20.02547,9.63166 -16.61764,3.30759 -32.27055,-1.48144 -37.09775,-11.34873 -1.71051,-3.49643 -2.07967,-9.22119 -0.81565,-12.55605 0.69331,-1.82918 0.90512,-1.93314 3.74072,-1.71707 6.91717,0.52706 17.86585,-2.21146 27.14125,-6.81462 13.82238,-6.85969 21.55766,-19.08571 13.97846,-22.0804 -1.75812,-0.69467 -3.12985,-0.66973 -8.60644,0.1878 -8.50666,1.332 -15.56121,3.99536 -22.95054,8.639 -7.9991,5.02682 -11.407,8.80979 -15.77851,17.51945 -0.0556,0.11085 -1.2827,-0.35659 -2.70006,-1.04635 -5.36065,-2.60872 -5.39399,-8.13985 -0.1125,-15.58774 1.74915,-2.46666 2.22844,-2.72009 11.41901,-5.58047 16.64867,-5.18155 34.04958,-14.35233 42.89164,-22.64381 6.97045,-6.53639 7.50553,-9.22924 1.8563,-9.22924 -10.64619,0 -26.36628,5.4247 -39.37593,13.57556 l -4.61261,2.87072 -4.95011,-2.22682 c -22.11834,-9.89288 -48.70302,-11.915 -63.31089,-4.82925 -11.61115,5.63218 -13.4747,16.61573 -3.79696,22.42919 2.59941,1.56146 2.91046,1.92182 1.88442,2.28048 -12.64749,4.42096 -17.90194,6.42769 -25.5381,9.73898 -8.89192,3.85586 -9.10298,3.93248 -7.59392,2.06585 1.18962,-1.47152 2.71747,-2.25238 6.52515,-3.29999 7.44288,-2.0478 13.1817,-5.93602 12.23466,-8.29021 -0.37529,-0.93291 -0.0637,-1.0096 2.41882,-0.59025 4.50841,0.76158 5.39239,0.68935 5.62513,-0.40243 0.29905,-1.40302 -2.19334,-1.90577 -9.11272,-1.87804 -6.312,0.0254 -13.5607,1.26581 -20.67237,3.56827 -2.61276,0.84592 -4.89462,1.55353 -5.06262,1.5561 -0.16799,0.003 0.73861,-0.85206 1.99693,-1.87805 l 2.27817,-1.85121 -3.7407,-0.0269 -3.74072,-0.0269 -3.90946,4.07804 c -2.1516,2.23985 -4.63363,4.33903 -5.51263,4.66828 -0.87902,0.32922 -5.77421,2.4062 -10.88465,4.64144 l -9.30959,4.07804 7.0033,-6.57314 c 3.83839,-3.61675 8.60443,-7.451 10.60338,-8.53169 11.9289,-6.44918 24.6459,-16.57427 29.05379,-23.12673 2.15332,-3.20098 2.55769,-5.54521 1.06879,-6.09023 -0.73242,-0.26809 -0.77616,-0.82232 -0.25314,-2.62926 1.08551,-3.75014 0.38235,-10.74992 -1.4344,-14.32678 -1.28453,-2.52901 -3.37891,-4.97816 -6.0189,-7.16339 l -1.77192,0 z m 150.72543,19.88041 c 0.99348,-0.003 1.09692,0.29912 1.09692,1.01951 0,0.69703 -1.96795,3.07361 -4.50011,5.44632 -8.84203,8.28522 -24.47675,16.76374 -40.66972,22.05358 -4.31084,1.40824 -8.17416,2.5756 -8.57833,2.5756 -0.99443,0 7.45042,-8.11421 12.76906,-12.26094 12.34146,-9.62215 27.7044,-17.33188 36.95711,-18.53895 1.40076,-0.18273 2.329,-0.29324 2.92507,-0.29512 z m 64.66092,4.10486 c -0.14201,-0.006 -0.29187,0.0122 -0.45001,0.0268 -1.26519,0.11677 -3.03749,0.89712 -5.28763,2.30731 -4.33548,2.71708 -18.41454,14.553 -19.40672,16.31213 -0.33978,0.60244 -4.69131,4.62832 -9.64709,8.96094 -4.9558,4.33261 -10.36079,9.51525 -12.03779,11.50971 -2.86883,3.4119 -3.23382,3.62194 -5.93451,3.62194 -1.57873,0 -2.86883,-0.15548 -2.86883,-0.34878 0,-0.19328 1.76669,-2.3691 3.9376,-4.82925 6.81031,-7.71772 6.85995,-11.04719 0.1125,-10.38288 -9.11756,0.89763 -20.97134,10.06422 -22.80991,17.62676 -0.32915,1.35386 -0.0602,2.08889 1.2094,3.29999 0.90094,0.8594 2.25436,1.58291 3.00944,1.58291 1.9458,0 5.41815,-1.49403 9.02834,-3.8634 2.62605,-1.72347 3.73873,-2.05189 7.14393,-2.09267 l 4.02197,-0.0537 -0.25314,2.03902 c -0.20633,1.69135 0.0304,2.16778 1.46254,2.79023 2.5236,1.09683 5.80754,-0.068 12.9378,-4.53412 l 6.04701,-3.78291 -1.68754,2.7634 c -2.03787,3.31711 -2.12096,4.89938 -0.3375,6.439 1.234,1.06527 1.7014,1.08336 5.45639,0.34878 2.25677,-0.44148 6.92566,-1.92218 10.37837,-3.29999 3.4527,-1.3778 6.71124,-2.66163 7.25641,-2.84389 1.0987,-0.36733 1.17021,-0.41656 -3.65632,3.4073 l -2.58757,2.03902 3.6282,0 c 3.57774,0 3.71775,-0.0615 7.59394,-3.80974 5.35747,-5.18067 11.38827,-8.99042 18.33793,-11.5902 l 5.82201,-2.17316 -6.63766,6.00973 c -5.35691,4.85876 -7.08854,6.88102 -9.00021,10.57069 -1.97357,3.80917 -2.36981,5.26414 -2.39069,8.71948 -0.0543,8.97906 6.59909,15.27543 17.71918,16.76823 7.50389,1.00734 17.27767,-0.39104 23.7943,-3.4073 7.80552,-3.61283 13.35855,-10.82841 13.95033,-18.16335 0.27117,-3.36089 0.0423,-4.31983 -1.60314,-7.29753 -2.6903,-4.86841 -6.09412,-6.56036 -12.43156,-6.17071 -3.05839,0.18805 -5.94266,0.8549 -8.52207,1.95852 -5.20465,2.22687 -4.28193,2.8522 1.15316,0.77805 7.51135,-2.86649 13.84668,-1.81113 16.4535,2.7634 1.92827,3.3838 1.35428,10.60726 -1.18127,15.05117 -3.36625,5.8998 -10.70037,10.9817 -18.22543,12.63654 -4.35705,0.95816 -13.7413,0.82669 -17.60668,-0.26829 -4.24067,-1.20129 -8.59293,-4.33702 -10.57525,-7.59266 -1.23664,-2.031 -1.47459,-3.2189 -1.29377,-6.41217 0.29181,-5.15325 2.53519,-8.25127 11.67215,-16.04384 3.79345,-3.23529 7.68162,-7.15936 8.63457,-8.71948 1.49836,-2.45296 2.15508,-2.93875 4.97825,-3.62193 5.71147,-1.38216 12.93985,-1.89112 17.80355,-1.26098 6.90613,0.89476 7.2152,0.87551 7.45331,-0.24146 0.29905,-1.40301 -2.19335,-1.90577 -9.11272,-1.87805 -5.29669,0.0213 -13.93477,1.30777 -17.57854,2.62927 -1.01614,0.36846 -2.04207,0.36223 -2.75633,-0.0269 -0.624,-0.33987 -4.38356,-0.83604 -8.38144,-1.09999 -8.84424,-0.58393 -20.95764,0.99022 -30.54448,3.99754 -0.6477,0.20318 0.009,-0.6412 1.46254,-1.87803 l 2.64382,-2.22683 -3.74072,-0.0269 c -3.71239,-0.0237 -3.74456,-0.0298 -7.3408,3.67559 -3.43291,3.53703 -4.0146,3.87923 -12.03779,6.65364 -4.64269,1.60542 -8.52548,2.84062 -8.63457,2.73657 -0.59166,-0.5644 9.12099,-9.10633 12.23466,-10.7585 15.45816,-8.20237 31.70282,-22.73376 30.96636,-27.6877 -0.15429,-1.03795 -0.74982,-1.59518 -1.74378,-1.63658 z m -208.15804,0.99269 -1.15316,2.1195 c -1.57109,2.89813 -7.76139,8.95847 -11.44714,11.21459 -1.68137,1.02919 -4.22898,2.35671 -5.65327,2.92438 l -2.58756,1.0195 1.01253,-1.4756 c 1.53819,-2.24671 13.89987,-12.61611 17.04416,-14.29994 l 2.78444,-1.50243 z m 207.48302,0.13414 c 0.13708,-0.0143 0.25565,-0.0132 0.36562,0 0.58657,0.0703 0.78083,0.52081 0.50627,1.42195 -1.47981,4.85678 -10.21641,13.50772 -20.13797,19.93407 -7.66113,4.96221 -10.90782,6.80249 -10.23774,5.76826 2.77819,-4.28801 11.82254,-14.54381 16.03161,-18.16334 6.36293,-5.47168 11.41609,-8.74683 13.47221,-8.96094 z m -205.93612,0.0536 c 0.22962,0.0213 0.25017,0.4551 -0.0282,1.36828 -1.4798,4.85679 -10.21641,13.50774 -20.13797,19.93408 -11.649,7.5452 -11.86666,7.59216 -6.69391,1.15365 2.40193,-2.98968 3.83197,-4.05051 8.38145,-6.17071 6.40188,-2.98347 12.88509,-8.35675 15.80662,-13.09264 1.29281,-2.09569 2.28925,-3.22812 2.67194,-3.19266 z m 56.81384,1.95852 c 13.9278,-0.12696 24.56904,1.85728 35.74772,6.57315 l 3.82509,1.60975 -3.26258,2.5756 c -4.51668,3.57588 -10.93652,10.07641 -12.88154,13.03897 -1.7958,2.73527 -1.67941,2.67728 -13.19095,3.80975 -3.4527,0.33967 -8.49106,0.63788 -11.194,0.6439 l -4.89388,0 1.80005,-1.79756 c 1.42,-1.41384 1.72478,-2.17039 1.37816,-3.48779 -0.30887,-1.17391 -0.67796,-1.49389 -1.2094,-1.07317 -0.41842,0.33125 -3.473,0.59025 -6.77829,0.59025 -3.30529,0 -7.08694,0.19257 -8.40957,0.42926 -1.32266,0.23669 -2.41881,0.28816 -2.41881,0.10732 0,-0.6183 8.79124,-5.61367 13.16281,-7.48534 2.40089,-1.02793 6.25561,-2.27606 8.57833,-2.79024 5.25222,-1.16266 14.49356,-1.19985 19.06919,-0.0537 3.25768,0.81604 3.47294,0.82098 3.85322,-0.32195 0.22166,-0.66699 0.22574,-1.39442 0,-1.60975 -0.22574,-0.21533 -3.92781,-0.52501 -8.21269,-0.67074 -12.44706,-0.42332 -21.22202,2.25508 -34.67895,10.5707 -3.39073,2.09528 -6.401,3.80974 -6.66577,3.80974 -1.22668,0 -6.42572,-4.02483 -7.31267,-5.66095 -2.79336,-5.15276 0.18732,-10.97489 7.36891,-14.40727 6.17772,-2.95259 11.91899,-4.02083 23.51306,-4.34633 0.9589,-0.0269 1.88404,-0.0452 2.81256,-0.0536 z m -175.39164,1.77073 c 1.79577,0 3.26258,0.2972 3.26258,0.6439 0,0.34669 -1.66408,0.61707 -3.68446,0.61707 -2.28067,0 -3.51613,-0.22572 -3.26257,-0.61707 0.22462,-0.3467 1.8887,-0.6439 3.68445,-0.6439 z m -26.635,9.73899 c 0.16973,0.16189 -1.1184,2.23167 -2.86882,4.58778 -6.64505,8.94447 -21.25439,21.03443 -30.99447,25.67552 -6.42305,3.06053 -11.58778,4.02357 -11.58778,2.14634 0,-1.98896 12.79702,-12.70345 24.13181,-20.20237 6.83851,-4.52424 20.92052,-12.58765 21.31926,-12.20727 z m 144.17215,2.9512 c -0.52964,0.005 -1.26796,0.0393 -2.25006,0.0805 -3.8515,0.16162 -3.99894,0.22262 -5.45636,2.68292 -0.82149,1.38675 -1.48437,2.7482 -1.49067,3.03168 -0.0122,0.57864 6.96819,-2.94896 9.33772,-4.72193 1.14567,-0.85722 1.44827,-1.08781 -0.14063,-1.07317 z m 206.80801,0 c -0.52963,0.005 -1.26797,0.0393 -2.25006,0.0805 -3.85151,0.16162 -3.97081,0.22262 -5.42825,2.68292 -0.82148,1.38675 -1.48436,2.7482 -1.49065,3.03168 -0.0122,0.57864 6.9682,-2.94896 9.33772,-4.72193 1.14566,-0.85722 1.42014,-1.08781 -0.16876,-1.07317 z m -273.83146,0.67073 6.52515,1.50244 c 9.78277,2.25597 18.42536,2.98347 25.79124,2.19999 3.4089,-0.3626 6.75312,-0.81753 7.42517,-1.01951 0.67206,-0.20197 -0.10456,0.78271 -1.71567,2.17317 l -2.92507,2.52193 -6.32828,0 c -3.47752,0 -8.553,0.42351 -11.27837,0.96585 -2.72539,0.54236 -5.95245,0.9924 -7.17206,0.99268 -5.14044,8.6e-4 -12.81065,2.69322 -18.25354,6.38535 -1.45378,0.98615 -6.90363,3.64149 -12.09405,5.90241 -9.46017,4.12084 -10.04086,4.3519 -10.04086,3.83658 0,-0.25212 15.03657,-13.0584 25.7631,-21.91944 l 4.30324,-3.54145 z m 202.33603,4.82925 c 0.32893,-0.005 0.64951,0.008 0.95626,0.0269 2.43512,0.15336 1.57302,5.80218 -1.49066,9.79266 -4.53819,5.91104 -16.18064,12.51861 -26.10062,14.8097 -6.05038,1.39741 -10.25424,1.82444 -13.41592,1.34145 l -2.22195,-0.34883 2.61569,-3.16583 c 8.96405,-10.7995 29.46033,-22.3099 39.6572,-22.45602 z m -178.42921,3.8634 3.90946,0.40244 c 2.14212,0.2304 3.99573,0.50398 4.13447,0.61707 0.13876,0.11309 -2.47901,2.78858 -5.82201,5.92924 -4.18783,3.93441 -6.56681,6.75237 -7.67831,9.06827 -1.59796,3.32952 -1.6721,3.38163 -6.41265,4.72194 -5.45874,1.54333 -7.50942,1.69134 -7.93143,0.5634 -0.58056,-1.55165 1.52764,-4.07976 10.60336,-12.63654 l 9.19711,-8.66582 z m 54.7044,0.10732 -4.2751,1.07317 c -8.48071,2.13168 -16.12558,7.58903 -19.49107,13.92433 -1.49219,2.80895 -1.92699,3.15578 -6.35641,4.72194 -2.62559,0.92835 -6.04098,1.83966 -7.56581,2.03901 -4.76024,0.6224 -4.59049,-1.16346 0.64691,-6.94875 5.96408,-6.588 10.40384,-9.65404 16.45349,-11.37557 6.186,-1.76031 10.95576,-2.65615 16.62229,-3.11218 l 3.9657,-0.32195 z m 33.27268,0.42927 c 2.39016,0.0245 4.49694,0.16305 5.28762,0.40243 1.33444,0.40403 1.33615,0.50466 0.33751,1.95853 -0.58063,0.8453 -1.38755,1.50072 -1.80004,1.44878 -0.41251,-0.052 -1.63787,-0.21898 -2.7282,-0.34877 -1.09032,-0.12981 -4.18983,-0.68485 -6.89079,-1.23416 -3.79133,-0.77104 -4.64065,-1.1175 -3.76883,-1.58291 0.81174,-0.43333 5.5791,-0.68469 9.56273,-0.6439 z m -146.92847,0.59024 -4.2751,4.21217 c -4.18162,4.09615 -14.84069,11.52739 -20.16611,14.05849 -3.60241,1.71219 -6.27202,2.28073 -6.27202,1.34147 0,-1.58788 5.58351,-7.70858 10.35025,-11.32192 6.49379,-4.9225 11.97361,-7.5147 16.6785,-7.94144 l 3.68448,-0.34877 z m 260.49989,0 c 0.9922,-0.0533 1.15631,0.26666 1.06878,1.52926 -0.17742,2.55934 -3.41658,6.81462 -5.17512,6.81462 -2.28309,0 -4.82828,2.29595 -5.06262,4.53412 -0.1646,1.57201 -0.94084,2.44785 -3.88135,4.42681 -4.3515,2.92856 -9.22882,3.99776 -9.22522,2.01219 0.004,-1.89386 2.11667,-4.68979 7.0033,-9.28289 5.16848,-4.85804 12.33913,-9.71736 14.79408,-10.00729 0.17776,-0.0211 0.3364,-0.0193 0.47815,-0.0269 z m -208.94556,0.0268 -4.30322,4.18536 c -4.18832,4.08934 -14.83518,11.53814 -20.13797,14.05848 -3.7584,1.78632 -6.30015,2.29393 -6.30015,1.26099 0,-1.66647 6.41386,-8.36187 11.70028,-12.20729 5.29122,-3.84891 9.25696,-5.47711 16.73476,-6.86827 l 2.3063,-0.42927 z m 62.01709,0.75122 1.99692,0 -1.82816,1.82439 c -0.99827,0.99394 -3.35818,2.51923 -5.25951,3.40731 -1.90133,0.88806 -4.32469,1.81579 -5.40013,2.06584 l -1.96879,0.4561 1.32191,-1.44877 c 2.28333,-2.50759 8.9923,-6.30487 11.13776,-6.30487 z m 209.08619,0.0269 c 1.31746,5.8e-4 2.76669,0.19594 3.37508,0.56341 0.71032,0.42904 0.46447,0.78497 -1.15315,1.58293 -1.22511,0.60432 -1.9243,1.33505 -1.65941,1.74389 0.28285,0.43659 0.16144,0.50879 -0.33751,0.21463 -0.45181,-0.26636 -1.85833,0.21467 -3.23447,1.07317 -4.35724,2.71821 -4.88868,2.49543 -2.10942,-0.85854 1.45297,-1.75339 2.61569,-3.44052 2.61569,-3.75608 0,-0.36721 1.18571,-0.564 2.50319,-0.56341 z m -8.49396,0.18775 c 3.61954,-0.11638 2.79995,0.77067 -3.68445,6.86827 -4.69913,4.41883 -5.85872,5.13506 -12.79718,7.96827 -4.19619,1.71345 -9.23656,3.57719 -11.19402,4.1317 -8.48484,2.40356 -9.26173,0.6715 -2.8407,-6.35852 6.34156,-6.94297 8.71138,-8.43109 16.8754,-10.43655 3.99802,-0.98208 9.34142,-1.90686 11.84091,-2.06585 0.6956,-0.0443 1.28296,-0.0907 1.80004,-0.10732 z m -182.42304,0.0537 c 0.0722,-8.6e-4 0.0844,0.0286 0.0844,0.0537 0,0.4841 -16.28408,11.97847 -20.02547,14.13897 -2.24876,1.29855 -5.7075,2.94715 -7.70644,3.64877 -8.14749,2.85976 -13.09966,2.26808 -11.36277,-1.36829 0.62019,-1.29842 2.69113,-2.56886 8.88771,-5.36584 4.44703,-2.00726 10.91951,-4.71894 14.37223,-6.03655 5.82501,-2.22295 14.66787,-5.05601 15.75037,-5.07072 z m 181.49489,0.48292 c -0.28792,-0.27466 -13.55656,8.04924 -13.55656,8.50485 0,0.65246 1.69093,-0.25142 7.42518,-3.99755 3.54163,-2.31371 6.30541,-4.34128 6.13138,-4.5073 z m 15.80663,0.56341 c 0.13381,-0.0152 0.25206,-0.002 0.36564,0 1.22905,0.0189 0.82683,0.31853 -1.6313,1.23414 -4.14335,1.54329 -4.47832,1.54083 -1.99691,-0.0269 0.95403,-0.60271 2.32592,-1.10152 3.26257,-1.2073 z m -252.70909,6.59998 c 0,0.49432 -14.05378,9.23662 -16.25662,10.11459 -1.21923,0.48595 -2.9544,0.88537 -3.85322,0.88537 -1.70531,0 -2.79906,-0.91347 -1.80005,-1.50244 1.46192,-0.86186 21.90989,-9.72633 21.90989,-9.49752 z m 206.63925,0 c 0.12599,-0.0246 0.19689,-0.0183 0.19689,0 0,0.50004 -14.03311,9.22837 -16.25664,10.11459 -2.55833,1.01967 -5.31529,1.16405 -5.87827,0.29513 -0.21375,-0.32993 0.45248,-1.47361 1.46253,-2.52195 1.40229,-1.45543 4.06005,-2.62509 11.25027,-5.01705 4.53169,-1.50753 8.34336,-2.69848 9.22522,-2.87072 z m -260.41552,1.09999 c 0.32943,0.31425 -9.96404,6.86443 -13.50032,8.58533 -3.36274,1.63646 -5.58732,1.74561 -5.28762,0.26831 0.13492,-0.66512 3.57486,-2.53534 9.36585,-5.07072 5.04342,-2.20808 9.28284,-3.91575 9.42209,-3.78292 z m -33.04765,15.85604 c 5.3104,0.007 9.98201,0.80231 13.10655,2.44146 2.23516,1.17256 2.70422,1.76386 2.86883,3.62194 0.44449,5.01797 -6.36927,9.80378 -16.59415,11.64386 -4.84766,0.87239 -10.97488,1.10606 -14.00657,0.53658 -0.72689,-0.13655 -2.95118,-0.55976 -4.95012,-0.93903 -4.2087,-0.79851 -10.42439,-3.77001 -12.65656,-6.03656 -1.53406,-1.55768 -1.53786,-1.5825 -0.225,-2.52194 0.72689,-0.52013 2.95118,-1.73844 4.95011,-2.70975 8.04943,-3.91126 18.65624,-6.04798 27.50691,-6.03656 z"
       id="path3892"
       inkscape:connector-curvature="0" />
  </g>
  <g
     inkscape:groupmode="layer"
     id="layer5"
     inkscape:label="Natalie + Colin"
     style="display:none"
     transform="translate(0,701.57482)">
    <path
       style="fill:#6d3353;fill-opacity:1"
       d="m 149.92911,185.41937 c 0.0214,-3.83518 5.04173,-12.11505 10.89425,-17.96758 l 6.16412,-6.16411 -1.74964,-3.49178 c -4.03929,-8.06121 -3.13136,-18.5103 2.48719,-28.6249 4.39545,-7.91271 16.68783,-20.65807 31.36164,-32.51732 14.08819,-11.385946 15.01294,-13.88672 4.48224,-12.121113 -5.78887,0.970587 -8.62007,1.836589 -16.78684,5.134739 -5.66175,2.286508 -6.48968,2.956472 -7.47847,6.051554 -7.72277,24.17388 -39.68096,48.87139 -61.43086,47.47423 -7.07646,-0.45458 -6.60163,-2.47171 2.73925,-11.63667 9.22687,-9.05311 23.78434,-19.61798 41.07775,-29.81156 12.63629,-7.44846 14.83841,-9.761953 14.82889,-15.578757 -0.005,-3.705307 -3.3643,-8.053662 -7.19666,-9.318452 -5.27663,-1.741447 -24.72794,-0.652547 -33.65341,1.88395 -9.81593,2.789552 -24.98412,10.37106 -31.8278,15.908469 -6.306184,5.10252 -11.876047,12.60585 -11.876047,15.9986 0,5.72831 9.217327,7.73649 21.239747,4.62753 12.96864,-3.35366 31.72444,-14.24931 41.69889,-24.223759 3.09068,-3.090683 5.81953,-5.619417 6.0641,-5.619417 1.12947,0 -5.61056,8.540144 -9.92088,12.570536 -9.96671,9.31941 -23.69969,16.35604 -37.42739,19.17736 -8.5506,1.75732 -12.24264,1.86551 -17.150552,0.50252 -13.813419,-3.83612 -2.819547,-21.29752 20.843432,-33.105311 10.25952,-5.119481 22.00718,-8.413251 34.09045,-9.558139 18.65381,-1.767462 27.26682,1.922626 28.65563,12.277004 0.28302,2.110099 0.58896,3.836531 0.67989,3.836531 0.0909,0 3.77559,-1.449502 8.18814,-3.221124 9.14208,-3.670506 18.04414,-5.744806 20.84259,-4.856601 5.33485,1.693211 0.84201,8.809632 -17.69595,28.02949 -21.6915,22.48939 -26.95163,29.99901 -26.95163,38.47734 0,4.47367 2.2651,11.34548 3.5493,10.76776 0.39935,-0.17967 3.07752,-1.56154 5.95153,-3.07085 12.28231,-6.45015 27.04672,-9.68423 40.66601,-8.90769 9.32797,0.53186 16.42012,3.03833 18.24491,6.44799 2.93855,5.49073 -2.73467,13.58688 -11.93212,17.02808 -16.67445,6.23873 -36.90836,4.28678 -48.69557,-4.69763 l -5.04206,-3.84313 -2.38439,1.87554 c -5.3489,4.20746 -12.67505,15.89905 -12.69942,20.26667 -0.005,0.91446 -0.6506,1.66265 -1.43442,1.66265 -0.78382,0 -1.42094,-0.74819 -1.41584,-1.66265 z m 64.12141,-12.78212 c 9.30987,-1.99263 16.29783,-6.74199 18.51036,-12.58061 0.88746,-2.34192 0.76679,-3.19403 -0.74004,-5.22545 -2.98101,-4.0189 -7.86724,-5.20877 -21.09563,-5.13712 -9.99621,0.0542 -13.20058,0.46352 -20.24389,2.58636 -8.17122,2.4628 -15.36343,5.65762 -19.1846,8.52192 -1.88275,1.41131 -1.8784,1.44769 0.47504,3.97016 7.54097,8.08266 25.58132,11.43854 42.27876,7.86474 z M 126.08348,139.4671 c 8.14761,-3.53461 20.63314,-12.79695 30.56081,-22.67134 8.92515,-8.87728 16.73549,-18.6804 15.70449,-19.71141 -0.59877,-0.59878 -20.25108,11.36985 -30.02962,18.2886 -11.08201,7.84102 -23.96531,18.66338 -26.10504,21.929 -3.5303,5.38792 0.43526,6.25789 9.86936,2.16515 z m 365.50974,41.80902 c -5.03205,-1.18155 -12.85412,-5.19818 -16.11683,-8.27597 -5.98351,-5.64436 -10.04291,-17.18472 -8.7934,-24.99859 0.54032,-3.37903 0.39769,-3.67629 -2.03979,-4.25069 -4.3793,-1.03199 -9.35366,-4.20179 -11.01956,-7.02193 -1.9614,-3.3204 -2.03516,-10.36707 -0.1556,-14.86549 l 1.42149,-3.40209 -3.08414,0.58501 c -1.69626,0.32174 -9.79974,0.85762 -18.00772,1.19085 -14.33218,0.58186 -15.00993,0.69994 -17.10152,2.97944 l -2.17791,2.37355 8.31324,-0.56061 c 4.57229,-0.30835 8.31324,-0.20625 8.31324,0.22686 0,2.16064 -3.08818,2.95234 -10.55693,2.70642 l -7.93018,-0.26112 -5.17546,6.91031 c -3.60074,4.80772 -5.40904,6.54218 -5.94323,5.70049 -1.2722,-2.00455 -0.99256,-2.54106 4.19104,-8.04079 l 4.98794,-5.29214 -8.3779,0.68927 -8.37792,0.68926 1.25228,-2.03515 c 1.17597,-1.91111 1.74793,-1.99688 9.38519,-1.40736 7.88161,0.60839 8.17956,0.5566 9.64222,-1.67568 l 1.50929,-2.30346 -8.68756,-1.64232 c -13.59228,-2.56952 -22.34756,-7.34233 -25.88302,-14.10974 -4.39421,-8.41119 3.40279,-20.242102 16.13046,-24.475837 19.92152,-6.626685 49.4713,-3.532518 73.83363,7.731129 l 8.17201,3.778245 6.87395,-4.446745 C 501.027,78.173579 517.85311,71.868289 532.183,70.536357 c 10.48744,-0.974778 10.32769,2.431522 -0.59312,12.647395 -13.28852,12.430758 -37.52845,25.187838 -59.38458,31.253158 -6.42588,1.78324 -8.13116,3.40851 -11.60267,11.05816 -2.84754,6.27472 -2.49909,9.8788 1.32481,13.70272 1.77666,1.77666 3.80996,3.23029 4.51846,3.23029 0.70849,0 2.31112,-2.24459 3.56139,-4.98794 2.74378,-6.02044 12.59426,-15.95547 20.4162,-20.59146 11.65015,-6.90491 31.91023,-11.99622 37.37139,-9.39131 3.45406,1.64755 4.00836,6.6805 1.31682,11.95637 -6.42527,12.59453 -32.83335,25.86458 -51.47191,25.86458 -6.33065,0 -6.41786,0.0351 -7.44867,2.99202 -2.51236,7.20694 -0.16468,16.5989 5.64581,22.58621 14.73233,15.18065 47.12982,13.63977 67.73118,-3.22142 3.82246,-3.12851 5.84407,-4.2282 6.52364,-3.54863 1.46272,1.46271 -9.11046,8.88133 -17.83329,12.51266 -3.99802,1.66438 -10.10693,3.62764 -13.57534,4.3628 -6.99666,1.48299 -21.40066,1.65004 -27.0899,0.31416 z m 0.69479,-39.37996 c 21.34808,-5.41963 40.85932,-22.34237 37.08876,-32.16828 -1.72679,-4.49993 -18.69961,1.40929 -34.32522,11.9506 -8.08456,5.45398 -18.06491,14.58742 -20.49421,18.75509 l -1.71634,2.94458 6.80468,0 c 3.74256,0 9.43162,-0.66689 12.64233,-1.48199 z m -72.12562,-26.69564 c 2.63252,-4.16672 2.84704,-4.30294 3.71457,-2.35876 0.73329,1.64334 0.4693,2.54386 -1.29686,4.42383 l -2.21754,2.36046 8.50378,0 c 7.98329,0 22.61948,-1.37331 26.2194,-2.46015 0.88772,-0.26801 1.90345,-1.39914 2.25716,-2.51358 0.35372,-1.11445 5.07851,-6.46167 10.49953,-11.88269 5.42102,-5.42103 9.8564,-9.99267 9.8564,-10.159209 0,-0.563576 -9.53977,-4.411013 -15.47594,-6.241541 -11.85782,-3.656569 -23.04094,-4.9754 -38.2038,-4.505374 -12.04097,0.373249 -15.44341,0.82987 -21.93787,2.944167 -12.60306,4.102996 -18.4407,9.585747 -18.4407,17.319657 0,6.9654 10.59274,14.20505 24.08148,16.45861 9.09489,1.51946 9.39269,1.43842 12.44039,-3.38542 z m 59.79133,-4.49637 c 20.6559,-6.91607 39.10432,-17.384998 51.09376,-28.994168 4.10121,-3.971123 7.45675,-7.811867 7.45675,-8.534985 0,-1.038907 -1.12607,-1.182418 -5.36699,-0.683985 -14.5436,1.709315 -39.19111,16.127041 -57.20597,33.463018 -4.51456,4.34444 -7.62115,7.9153 -6.90351,7.93524 0.71763,0.0199 5.63431,-1.41334 10.92596,-3.18512 z m -139.89594,32.08186 c -2.2348,-1.56532 -2.46993,-4.9276 -0.63957,-9.14552 0.45481,-1.04808 -2.35262,0.26788 -7.60088,3.56282 -4.57713,2.87363 -8.79125,5.21961 -9.36469,5.21332 -0.57345,-0.007 0.69466,-1.00506 2.81801,-2.21947 7.50895,-4.2946 16.15263,-10.47531 21.07655,-15.07088 5.78397,-5.39828 13.31344,-9.13807 19.99002,-9.92882 5.74931,-0.68091 7.04841,0.70351 3.86414,4.11793 -2.3347,2.50342 -10.31028,6.96802 -12.41905,6.95197 -0.67055,-0.005 1.13226,-1.10224 4.00627,-2.43809 8.37473,-3.8926 12.62385,-8.86568 6.53445,-7.64779 -3.97888,0.79577 -13.45147,7.73529 -19.67661,14.41487 -6.43181,6.90135 -7.68678,9.46157 -5.64074,11.50759 2.56949,2.5695 9.71877,0.0827 21.14539,-7.3554 5.55266,-3.61445 10.3923,-6.57096 10.75474,-6.57001 0.36244,9.3e-4 -3.83016,3.00153 -9.31689,6.668 -13.17938,8.80703 -20.87562,11.20033 -25.53114,7.93948 z m 287.04178,0.91301 c -0.65319,-0.26357 -1.18761,-1.95999 -1.18761,-3.76981 0,-2.83442 0.88904,-4.12527 6.41308,-9.31144 17.60125,-16.52479 16.23324,-15.02005 13.06365,-14.36937 -2.09919,0.43094 -2.47473,0.33099 -1.42514,-0.37928 0.78383,-0.53042 2.3871,-0.97093 3.56282,-0.97895 1.77826,-0.0119 2.1377,0.50099 2.1377,3.05151 0,2.6609 -1.39451,4.40848 -10.55364,13.22569 -15.026,14.46507 -12.38727,15.91828 6.40939,3.52982 5.44125,-3.58621 10.19968,-6.52038 10.57428,-6.52038 1.21484,0 -18.00417,12.52074 -22.01498,14.34226 -4.03099,1.83065 -4.97247,1.98982 -6.97955,1.17995 z m -443.00172,-1.77613 c -1.91892,-2.31218 0.35298,-8.09822 5.3715,-13.67999 8.21192,-9.13363 16.14944,-12.41345 32.18183,-13.29771 6.27056,-0.34583 11.49291,-0.58921 11.60523,-0.54083 0.11225,0.0483 -5.12503,5.45986 -11.63852,12.02554 -6.51353,6.56565 -11.84276,12.60609 -11.84276,13.42316 0,0.81708 0.74819,1.68112 1.66265,1.92009 0.91447,0.23897 0.0459,0.48409 -1.92998,0.54471 -5.50274,0.1688 -5.78093,-2.61239 -0.93476,-9.34564 1.33834,-1.8595 0.46982,-1.51118 -4.29938,1.72419 -6.57146,4.45801 -15.00859,8.65799 -17.42173,8.67247 -0.85047,0.005 -2.08981,-0.64561 -2.75408,-1.44599 z m 10.95098,-2.59362 c 6.86692,-3.442 19.85483,-12.85834 25.14478,-18.23017 l 5.19301,-5.27339 -4.35279,0 c -8.38532,0 -24.65916,10.69726 -32.28145,21.21952 -4.2469,5.86267 -2.27215,6.57901 6.29645,2.28404 z m 32.78486,2.63213 c -1.09277,-1.3167 -0.99479,-2.23678 0.65371,-6.13866 l 1.93914,-4.58981 -7.85866,5.12252 c -4.32224,2.81739 -8.22062,5.1175 -8.66305,5.11134 -0.44241,-0.007 3.25722,-2.61757 8.2214,-5.80314 4.9642,-3.18559 11.80479,-8.4361 15.20134,-11.66782 3.39656,-3.23173 11.05622,-10.12579 17.02148,-15.32014 l 10.84592,-9.44426 -6.79051,-2.06498 c -15.18524,-4.617791 -27.0931,-5.045234 -37.97022,-1.36298 -2.72722,0.92326 -4.95859,1.32876 -4.95859,0.90111 0,-0.42765 2.45834,-1.53291 5.46298,-2.45612 8.86106,-2.722673 23.94449,-2.155186 36.03416,1.35574 l 9.66932,2.80802 4.17824,-4.17823 c 3.94842,-3.948406 4.43538,-4.161929 8.85314,-3.881863 l 4.6749,0.296356 -6.05859,4.750427 -6.05861,4.75043 3.68756,1.11459 c 5.21062,1.57493 15.56704,1.51032 20.20503,-0.12611 2.16162,-0.76265 5.85303,-2.70958 8.20315,-4.3265 3.80117,-2.61528 6.16041,-3.044111 6.15542,-1.11886 -0.003,1.28336 -8.15425,5.72956 -13.23439,7.21912 -6.40904,1.8792 -12.08689,1.89861 -19.85278,0.0678 -3.30631,-0.77945 -6.5834,-1.09379 -7.28242,-0.69852 -2.39843,1.35622 -34.44413,29.64569 -37.41532,33.0297 -10.50281,11.96204 8.97128,4.56482 24.29052,-9.22674 8.89255,-8.00575 15.13508,-10.30674 30.21902,-11.13867 6.27056,-0.34585 11.49291,-0.58922 11.60523,-0.54084 0.11225,0.0483 -5.12503,5.45987 -11.63852,12.02555 -6.51352,6.56564 -11.84274,12.60608 -11.84274,13.42315 0,0.81709 0.74817,1.68112 1.66264,1.92008 0.91446,0.23898 0.0459,0.48412 -1.92999,0.54473 -5.47797,0.16803 -5.7791,-2.6458 -0.99022,-9.2528 1.1819,-1.6306 -0.36108,-0.94298 -5.68969,2.53558 -9.07903,5.92684 -15.43885,8.5026 -17.6197,7.13605 -2.24007,-1.40365 -2.35022,-4.07773 -0.33029,-8.01941 l 1.76048,-3.43542 -8.48737,5.57311 c -4.66804,3.06519 -8.97499,5.57893 -9.57099,5.58606 -0.59599,0.007 -1.96857,0.25064 -3.05015,0.5411 -1.19322,0.32045 -2.47203,-0.081 -3.25198,-1.02074 z m 32.77094,-2.63213 c 6.86692,-3.442 19.85483,-12.85834 25.14479,-18.23017 l 5.193,-5.27339 -4.35279,0 c -8.38532,0 -24.65916,10.69726 -32.28143,21.21952 -4.24692,5.86267 -2.27219,6.57901 6.29643,2.28404 z m 54.5569,2.53587 c -1.06018,-1.27745 -0.89341,-2.19589 1.07128,-5.89936 1.27982,-2.4125 2.36919,-4.61752 2.42082,-4.90007 0.0516,-0.28253 3.73461,-4.25465 8.18442,-8.82693 7.89079,-8.10794 8.20007,-8.31323 12.52511,-8.31323 l 4.43454,0 -7.03585,6.13631 c -9.29737,8.10866 -18.67713,18.42086 -18.67713,20.53379 0,0.9312 0.7482,1.88862 1.66266,2.12758 1.07193,0.28014 0.77572,0.47366 -0.83376,0.54471 -1.37301,0.0605 -3.06147,-0.57064 -3.75209,-1.4028 z m 209.73851,0.12412 c -2.12198,-2.12196 -2.03087,-3.06824 0.85252,-8.85448 4.78469,-9.60158 17.5884,-18.34897 27.22912,-18.6027 4.46336,-0.11752 5.03091,0.0907 5.29444,1.94182 0.40408,2.83833 -1.71681,6.63641 -6.96615,12.47494 -3.51922,3.9142 -4.06031,4.92841 -2.6294,4.92841 4.93586,0 11.81851,-5.35285 30.67728,-23.85861 10.71219,-10.51168 21.96544,-21.207834 25.00721,-23.769212 12.58054,-10.593714 20.27379,-11.202386 14.3753,-1.137346 -5.3122,9.064578 -20.34945,21.981318 -35.46108,30.460418 -6.00934,3.37183 -26.72345,22.62555 -26.72345,24.83938 0,1.58902 5.36353,1.28769 8.83545,-0.4964 1.67234,-0.85935 5.53188,-3.24911 8.5768,-5.31059 3.04492,-2.06149 5.72347,-3.56088 5.95236,-3.332 0.51814,0.51814 -8.29618,6.41457 -13.7419,9.19276 -5.36266,2.73584 -10.91613,2.41495 -11.35217,-0.65594 -0.16738,-1.17879 0.33428,-3.42336 1.1148,-4.98795 0.78051,-1.56458 1.29031,-2.84469 1.13291,-2.84469 -0.15742,0 -1.82106,0.64131 -3.69701,1.42514 -1.87594,0.78381 -4.28445,1.42512 -5.35223,1.42512 -1.0678,0 -4.52807,1.76563 -7.68953,3.92362 -6.69439,4.56955 -12.81908,5.85451 -15.43527,3.23831 z m 10.08855,-1.1272 c 6.19908,-3.1926 9.21614,-6.13018 9.21614,-8.97335 0,-2.04347 0.69184,-3.07084 2.80307,-4.16261 1.54169,-0.79724 3.44759,-1.44952 4.23534,-1.44952 1.58604,0 6.26276,-7.33444 6.26276,-9.82184 0,-0.86854 -0.65833,-1.57918 -1.46297,-1.57918 -6.39907,0 -28.93972,20.04656 -28.93972,25.73759 0,2.31897 3.64269,2.43396 7.88538,0.24891 z m 65.70879,-38.3375 c 10.05249,-8.05101 18.56398,-18.200507 18.56398,-22.136525 0,-6.12714 -20.16547,10.031974 -32.70054,26.203785 -3.96164,5.11102 -7.20297,9.49793 -7.20297,9.74871 0,0.87403 15.64411,-9.25451 21.33953,-13.81597 z m -23.31264,39.34058 c -1.06019,-1.27745 -0.89342,-2.19589 1.07127,-5.89936 1.27982,-2.4125 2.36919,-4.61752 2.42082,-4.90007 0.0516,-0.28253 3.73461,-4.25465 8.18442,-8.82693 7.8908,-8.10794 8.20009,-8.31323 12.52512,-8.31323 l 4.43453,0 -7.03585,6.13631 c -9.29735,8.10866 -18.67712,18.42086 -18.67712,20.53379 0,0.9312 0.74819,1.88862 1.66263,2.12758 1.07196,0.28014 0.77575,0.47366 -0.83374,0.54471 -1.37302,0.0605 -3.06145,-0.57064 -3.75208,-1.4028 z m 22.44742,0.7381 c 0.49642,-0.42619 4.9722,-4.22585 9.9462,-8.44368 9.79702,-8.30764 17.08369,-15.7566 17.08369,-17.46418 0,-0.59013 -0.63997,-0.82738 -1.42216,-0.52724 -1.7994,0.6905 -15.0764,9.59689 -19.47969,13.06724 -4.67957,3.68809 -20.03081,13.19501 -21.28435,13.18125 -0.57345,-0.007 0.66752,-0.99549 2.75771,-2.19821 2.09017,-1.20272 11.80695,-7.61064 21.59281,-14.23982 17.11963,-11.59725 22.58609,-14.18325 22.58609,-10.68471 0,0.75258 -2.18297,4.21648 -4.85106,7.69754 l -4.85107,6.3292 6.98875,-4.70045 c 6.39705,-4.30248 12.42185,-7.86295 11.26414,-6.65674 -0.26127,0.27222 -5.60549,3.9285 -11.87605,8.12509 -6.27055,4.19658 -13.52262,9.80353 -16.11572,12.45989 -4.28382,4.38836 -5.10435,4.82973 -8.97829,4.82973 -2.34496,0 -3.85742,-0.34871 -3.361,-0.77491 z m -306.76632,-0.80855 c -1.05602,-1.05604 -0.70198,-4.43813 0.75748,-7.2361 0.92116,-1.76597 0.9981,-2.41343 0.23167,-1.94965 -0.63113,0.3819 -4.00136,2.53366 -7.48941,4.7817 -3.48805,2.24803 -6.69457,4.08169 -7.12563,4.07477 -0.43105,-0.007 3.3568,-2.67904 8.41744,-5.93804 7.12165,-4.58626 14.10019,-10.69045 30.87773,-27.00904 22.85137,-22.226273 27.10294,-25.970821 32.80222,-28.890296 7.0312,-3.601768 9.02057,-1.410931 4.97981,5.484114 -5.31219,9.064572 -20.34944,21.981312 -35.46107,30.460422 -6.00934,3.37183 -26.72347,22.62554 -26.72347,24.83937 0,1.58902 5.36354,1.28769 8.83547,-0.49639 1.67233,-0.85935 5.53189,-3.24912 8.5768,-5.31059 3.04491,-2.06149 5.72347,-3.56088 5.95234,-3.33201 0.51353,0.51353 -8.27735,6.40497 -13.63725,9.1394 -3.81631,1.94694 -9.6909,2.68557 -10.99413,1.38234 z m 45.40835,-39.27013 c 10.05248,-8.05101 18.56398,-18.200507 18.56398,-22.136525 0,-6.12714 -20.16548,10.031974 -32.70055,26.203785 -3.96163,5.11102 -7.20298,9.49793 -7.20298,9.74871 0,0.87403 15.64412,-9.25451 21.33955,-13.81597 z m 7.13009,2.91469 c 2.39616,-4.69686 2.58576,-4.80137 7.51158,-4.1407 l 4.06785,0.54561 -6.3183,3.66549 c -3.47504,2.01601 -6.50925,3.66548 -6.74265,3.66548 -0.23341,0 0.43328,-1.68114 1.48152,-3.73588 z m 262.2232,0 c 2.39616,-4.69686 2.58577,-4.80137 7.51159,-4.1407 l 4.06784,0.54561 -6.31829,3.66549 c -3.47506,2.01601 -6.50925,3.66548 -6.74267,3.66548 -0.2334,0 0.43329,-1.68114 1.48153,-3.73588 z"
       id="path3854"
       inkscape:connector-curvature="0" />
  </g>
  <g
     inkscape:groupmode="layer"
     id="layer6"
     inkscape:label="Text"
     transform="translate(0,701.57482)">
    <text
       xml:space="preserve"
       style="font-size:39.55646515px;font-style:normal;font-variant:normal;font-weight:normal;font-stretch:normal;line-height:125%;letter-spacing:0px;word-spacing:0px;fill:#000000;fill-opacity:1;stroke:none;font-family:BenchNine;-inkscape-font-specification:BenchNine"
       x="-606.32092"
       y="-66.523323"
       id="text3004"
       sodipodi:linespacing="125%"
       transform="matrix(0,0.97667982,-1.023877,0,0,0)"><tspan
         sodipodi:role="line"
         id="tspan3006"
         x="-606.32092"
         y="-66.523323">20<tspan
   style="font-size:28.12904167px"
   id="tspan3948">TH</tspan> MAY 2013</tspan></text>
    <text
       transform="matrix(0,-0.97667982,1.023877,0,0,0)"
       sodipodi:linespacing="125%"
       id="text3008"
       y="655.76068"
       x="445.90778"
       style="font-size:39.55646515px;font-style:normal;font-variant:normal;font-weight:normal;font-stretch:normal;line-height:125%;letter-spacing:0px;word-spacing:0px;fill:#000000;fill-opacity:1;stroke:none;font-family:BenchNine;-inkscape-font-specification:BenchNine"
       xml:space="preserve"><tspan
         y="655.76068"
         x="445.90778"
         id="tspan3010"
         sodipodi:role="line">ADMIT THREE</tspan></text>
    <text
       xml:space="preserve"
       style="font-size:41.4161644px;font-style:normal;font-variant:normal;font-weight:normal;font-stretch:normal;line-height:125%;letter-spacing:0px;word-spacing:0px;fill:#000000;fill-opacity:1;stroke:none;font-family:BenchNine;-inkscape-font-specification:BenchNine"
       x="146.79405"
       y="-469.02863"
       id="text3012"
       sodipodi:linespacing="125%"
       transform="scale(1.023877,0.97667982)"><tspan
         sodipodi:role="line"
         id="tspan3014"
         x="146.79405"
         y="-469.02863">TWELVE THIRTY</tspan></text>
    <text
       sodipodi:linespacing="125%"
       id="text3016"
       y="-432.61346"
       x="238.4269"
       style="font-size:19.33871651px;font-style:normal;font-weight:normal;line-height:125%;letter-spacing:0px;word-spacing:0px;fill:#000000;fill-opacity:1;stroke:none;font-family:Sans"
       xml:space="preserve"
       transform="scale(1.023877,0.97667982)"><tspan
         y="-432.61346"
         x="238.4269"
         sodipodi:role="line"
         style="font-size:19.33871651px;font-style:normal;font-variant:normal;font-weight:bold;font-stretch:normal;text-align:center;text-anchor:middle;font-family:CopperplateTBolCon;-inkscape-font-specification:CopperplateTBolCon Bold"
         id="tspan3894">Whiteabbey Presbyterian</tspan></text>
    <text
       sodipodi:linespacing="125%"
       id="text3034"
       y="-493.1192"
       x="373.97385"
       style="font-size:17.58065224px;font-style:normal;font-variant:normal;font-weight:bold;font-stretch:normal;line-height:125%;letter-spacing:0px;word-spacing:0px;fill:#808080;fill-opacity:1;stroke:none;font-family:CopperplateTBolCon;-inkscape-font-specification:CopperplateTBolCon Bold"
       xml:space="preserve"
       transform="scale(1.023877,0.97667982)"><tspan
         y="-493.1192"
         x="373.97385"
         id="tspan3036"
         sodipodi:role="line">Followed By A Reception at</tspan></text>
    <text
       xml:space="preserve"
       style="font-size:40.4355011px;font-style:normal;font-variant:normal;font-weight:normal;font-stretch:normal;line-height:125%;letter-spacing:0px;word-spacing:0px;fill:#000000;fill-opacity:1;stroke:none;font-family:BenchNine;-inkscape-font-specification:BenchNine"
       x="484.80884"
       y="-442.67435"
       id="text3038"
       sodipodi:linespacing="125%"
       transform="scale(1.023877,0.97667982)"><tspan
         style="font-size:40.4355011px;font-style:normal;font-variant:normal;font-weight:normal;font-stretch:normal;text-align:center;text-anchor:middle;font-family:BenchNine;-inkscape-font-specification:BenchNine"
         id="tspan3042"
         sodipodi:role="line"
         x="484.80884"
         y="-442.67435">L<tspan
   style="font-size:40.4355011px;font-style:normal;font-variant:normal;font-weight:normal;font-stretch:normal;font-family:BenchNine;-inkscape-font-specification:BenchNine"
   id="tspan3789">ARCHFIELD EST</tspan>ATE</tspan></text>
    <text
       xml:space="preserve"
       style="font-size:14.06452084px;font-style:normal;font-variant:normal;font-weight:bold;font-stretch:normal;line-height:125%;letter-spacing:0px;word-spacing:0px;fill:#808080;fill-opacity:1;stroke:none;font-family:CopperplateTBolCon;-inkscape-font-specification:CopperplateTBolCon Bold"
       x="239.87465"
       y="-390.80835"
       id="text3046"
       sodipodi:linespacing="125%"
       transform="scale(1.023877,0.97667982)"><tspan
         sodipodi:role="line"
         id="tspan3048"
         x="239.87465"
         y="-390.80835"
         style="font-style:normal;font-variant:normal;font-weight:bold;font-stretch:normal;fill:#808080;font-family:CopperplateTBolCon;-inkscape-font-specification:CopperplateTBolCon Bold">PLEASE RSVP BY THE 6th APRIL 2013</tspan></text>
    <text
       xml:space="preserve"
       style="font-size:17.58065224px;font-style:normal;font-weight:normal;line-height:125%;letter-spacing:0px;word-spacing:0px;fill:#000000;fill-opacity:1;stroke:none;font-family:Sans"
       x="237.42166"
       y="-417.18088"
       id="text3898"
       sodipodi:linespacing="125%"
       transform="scale(1.023877,0.97667982)"><tspan
         id="tspan3900"
         style="font-size:14.06452084px;font-style:normal;font-variant:normal;font-weight:bold;font-stretch:normal;text-align:center;text-anchor:middle;fill:#808080;font-family:CopperplateTBolCon;-inkscape-font-specification:CopperplateTBolCon Bold"
         sodipodi:role="line"
         x="237.42166"
         y="-417.18088">602 Shore Road, Newtownabbey</tspan></text>
    <text
       sodipodi:linespacing="125%"
       id="text3906"
       y="-424.02725"
       x="485.23071"
       style="font-size:17.58065224px;font-style:normal;font-weight:normal;line-height:125%;letter-spacing:0px;word-spacing:0px;fill:#000000;fill-opacity:1;stroke:none;font-family:Sans"
       xml:space="preserve"
       transform="scale(1.023877,0.97667982)"><tspan
         y="-424.02725"
         x="485.23071"
         sodipodi:role="line"
         style="font-size:17.58065224px;font-style:normal;font-variant:normal;font-weight:bold;font-stretch:normal;text-align:center;text-anchor:middle;fill:#808080;font-family:CopperplateTBolCon;-inkscape-font-specification:CopperplateTBolCon Bold"
         id="tspan3908">Bailliesmills Road, Lisburn</tspan></text>
    <text
       xml:space="preserve"
       style="font-size:28.12904167px;font-style:normal;font-variant:normal;font-weight:bold;font-stretch:normal;line-height:125%;letter-spacing:0px;word-spacing:0px;fill:#000000;fill-opacity:1;stroke:none;font-family:Copperplate Extra Condensed SSi;-inkscape-font-specification:Copperplate Extra Condensed SSi Bold"
       x="201.6539"
       y="-641.46985"
       id="text3932"
       sodipodi:linespacing="125%"
       transform="scale(1.023877,0.97667982)"><tspan
         sodipodi:role="line"
         id="tspan3934"
         x="201.6539"
         y="-641.46985">alana, mark and evie magill</tspan></text>
    <text
       sodipodi:linespacing="125%"
       id="text3936"
       y="-626.54303"
       x="361.31509"
       style="font-size:17.58065224px;font-style:normal;font-weight:normal;line-height:125%;letter-spacing:0px;word-spacing:0px;fill:#000000;fill-opacity:1;stroke:none;font-family:Sans"
       xml:space="preserve"
       transform="scale(1.023877,0.97667982)"><tspan
         y="-626.54303"
         x="361.31509"
         sodipodi:role="line"
         style="font-size:14.06452084px;font-style:normal;font-variant:normal;font-weight:bold;font-stretch:normal;text-align:center;text-anchor:middle;fill:#808080;font-family:CopperplateTBolCon;-inkscape-font-specification:CopperplateTBolCon Bold"
         id="tspan3938">you are invited to celebrate the wedding of</tspan></text>
  </g>
  <g
     inkscape:groupmode="layer"
     id="layer4"
     inkscape:label="Punch Outline"
     style="display:inline"
     transform="translate(0,701.57482)">
    <path
       sodipodi:type="arc"
       style="fill:#cccccc;stroke:none"
       id="path3774"
       sodipodi:cx="6.9473691"
       sodipodi:cy="122.75021"
       sodipodi:rx="43.727558"
       sodipodi:ry="27.789476"
       d="m 50.674927,122.75021 c 0,15.34771 -19.577494,27.78948 -43.7275579,27.78948 -24.1500631,0 -43.7275581,-12.44177 -43.7275581,-27.78948 0,-15.3477 19.577495,-27.789473 43.7275581,-27.789473 24.1500639,0 43.7275579,12.441773 43.7275579,27.789473 z"
       transform="matrix(1.0939502,0,0,1.6420142,11.546423,-712.54211)" />
    <path
       transform="matrix(1.0939502,0,0,1.6420142,713.13779,-712.54211)"
       d="m 50.674927,122.75021 c 0,15.34771 -19.577494,27.78948 -43.7275579,27.78948 -24.1500631,0 -43.7275581,-12.44177 -43.7275581,-27.78948 0,-15.3477 19.577495,-27.789473 43.7275581,-27.789473 24.1500639,0 43.7275579,12.441773 43.7275579,27.789473 z"
       sodipodi:ry="27.789476"
       sodipodi:rx="43.727558"
       sodipodi:cy="122.75021"
       sodipodi:cx="6.9473691"
       id="path3776"
       style="fill:#cccccc;stroke:none"
       sodipodi:type="arc" />
  </g>
</svg>
