<?xml version="1.0" encoding="UTF-8" standalone="no"?>
<!-- Created with Inkscape (http://www.inkscape.org/) -->

<svg
   xmlns:dc="http://purl.org/dc/elements/1.1/"
   xmlns:cc="http://creativecommons.org/ns#"
   xmlns:rdf="http://www.w3.org/1999/02/22-rdf-syntax-ns#"
   xmlns:svg="http://www.w3.org/2000/svg"
   xmlns="http://www.w3.org/2000/svg"
   xmlns:sodipodi="http://sodipodi.sourceforge.net/DTD/sodipodi-0.dtd"
   xmlns:inkscape="http://www.inkscape.org/namespaces/inkscape"
   width="744.09448"
   height="350.78738"
   id="svg2"
   version="1.1"
   inkscape:version="0.48.3.1 r9886"
   sodipodi:docname="Invitation.svg">
  <defs
     id="defs4">
    <linearGradient
       id="linearGradient3856">
      <stop
         style="stop-color:#020031;stop-opacity:1;"
         offset="0"
         id="stop3858" />
      <stop
         style="stop-color:#6d3353;stop-opacity:1;"
         offset="1"
         id="stop3860" />
    </linearGradient>
  </defs>
  <sodipodi:namedview
     id="base"
     pagecolor="#ffffff"
     bordercolor="#666666"
     borderopacity="1.0"
     inkscape:pageopacity="0.0"
     inkscape:pageshadow="2"
     inkscape:zoom="2"
     inkscape:cx="387.40862"
     inkscape:cy="206.81096"
     inkscape:document-units="px"
     inkscape:current-layer="layer1"
     showgrid="false"
     units="mm"
     height="99mm"
     inkscape:window-width="1920"
     inkscape:window-height="1056"
     inkscape:window-x="0"
     inkscape:window-y="24"
     inkscape:window-maximized="1"
     showguides="true"
     inkscape:guide-bbox="true" />
  <metadata
     id="metadata7">
    <rdf:RDF>
      <cc:Work
         rdf:about="">
        <dc:format>image/svg+xml</dc:format>
        <dc:type
           rdf:resource="http://purl.org/dc/dcmitype/StillImage" />
        <dc:title />
      </cc:Work>
    </rdf:RDF>
  </metadata>
  <g
     inkscape:groupmode="layer"
     id="layer2"
     inkscape:label="Outline"
     transform="translate(0,-393.30708)"
     style="display:inline"
     sodipodi:insensitive="true">
    <rect
       style="fill:#cccccc;stroke:none"
       id="rect3756"
       width="744.09448"
       height="350.78741"
       x="-2.126771e-15"
       y="393.30707" />
  </g>
  <g
     inkscape:label="Ticket Background"
     inkscape:groupmode="layer"
     id="layer1"
     transform="translate(0,-701.57477)"
     style="display:inline"
     sodipodi:insensitive="true">
    <rect
       style="fill:#ffffff;fill-opacity:0.94117647;stroke:none"
       id="rect2985"
       width="744.09448"
       height="350.78741"
       x="0"
       y="701.57477"
       rx="35.433071"
       ry="35.433071" />
  </g>
  <g
     inkscape:groupmode="layer"
     id="layer3"
     inkscape:label="Grid"
     style="display:inline"
     sodipodi:insensitive="true">
    <rect
       style="fill:none;stroke:#000000;stroke-width:0.88590294;stroke-miterlimit:4;stroke-dasharray:none;display:inline"
       id="rect2985-4"
       width="707.77551"
       height="314.46841"
       x="18.159485"
       y="18.159485"
       rx="33.772964"
       ry="31.903481" />
    <path
       style="fill:none;stroke:#000000;stroke-width:0.98595262px;stroke-linecap:butt;stroke-linejoin:miter;stroke-opacity:1"
       d="m 89.075653,18.264579 0,314.256601"
       id="path3778"
       inkscape:connector-curvature="0" />
    <path
       inkscape:connector-curvature="0"
       id="path3780"
       d="m 656.00479,18.264576 0,314.256604"
       style="fill:none;stroke:#000000;stroke-width:0.98595262px;stroke-linecap:butt;stroke-linejoin:miter;stroke-opacity:1" />
    <path
       style="fill:none;stroke:#000000;stroke-width:0.88642526px;stroke-linecap:butt;stroke-linejoin:miter;stroke-opacity:1"
       d="m 88.410266,64.706376 567.272234,0"
       id="path3782"
       inkscape:connector-curvature="0" />
    <path
       inkscape:connector-curvature="0"
       id="path3784"
       d="m 88.410266,187.75362 567.272234,0"
       style="fill:#800080;stroke:#000000;stroke-width:0.88642526px;stroke-linecap:butt;stroke-linejoin:miter;stroke-opacity:1" />
    <path
       style="fill:none;stroke:#000000;stroke-width:0.88642526px;stroke-linecap:butt;stroke-linejoin:miter;stroke-opacity:1"
       d="m 88.410266,306.05283 567.272234,0"
       id="path3786"
       inkscape:connector-curvature="0" />
    <path
       style="fill:none;stroke:#000000;stroke-width:0.88582677;stroke-linecap:butt;stroke-linejoin:miter;stroke-miterlimit:4;stroke-opacity:1;stroke-dasharray:none"
       d="m 372.00305,187.41369 0,118.24999"
       id="path3791"
       inkscape:connector-curvature="0" />
    <path
       style="fill:none;stroke:#000000;stroke-width:0.88582677;stroke-linecap:butt;stroke-linejoin:miter;stroke-miterlimit:4;stroke-opacity:1;stroke-dasharray:none"
       d="m 89.095455,253.90335 283.196265,0"
       id="path3902"
       inkscape:connector-curvature="0" />
    <path
       inkscape:connector-curvature="0"
       id="path3904"
       d="m 372.10282,219.30353 283.60715,0"
       style="fill:none;stroke:#000000;stroke-width:0.82149142;stroke-linecap:butt;stroke-linejoin:miter;stroke-miterlimit:4;stroke-opacity:1;stroke-dasharray:none" />
    <rect
       style="fill:#000000;fill-opacity:0.94117647;stroke:#441650;stroke-width:0.88582677;stroke-linejoin:round;stroke-miterlimit:4;stroke-opacity:1;stroke-dasharray:none;stroke-dashoffset:0"
       id="rect3910"
       width="7.0866141"
       height="7.0866141"
       x="545.48572"
       y="-432.02335"
       ry="0"
       transform="matrix(0.70710678,0.70710678,-0.70710678,0.70710678,0,0)" />
    <rect
       transform="matrix(0.70710678,0.70710678,-0.70710678,0.70710678,0,0)"
       ry="0"
       y="-306.99698"
       x="670.51208"
       height="7.0866141"
       width="7.0866141"
       id="rect3914"
       style="fill:#000000;fill-opacity:0.94117647;stroke:#441650;stroke-width:0.88582677;stroke-linejoin:round;stroke-miterlimit:4;stroke-opacity:1;stroke-dasharray:none;stroke-dashoffset:0" />
    <rect
       transform="matrix(0.70710678,0.70710678,-0.70710678,0.70710678,0,0)"
       ry="0"
       y="6.8824835"
       x="81.124664"
       height="7.0866141"
       width="7.0866141"
       id="rect3954"
       style="fill:#000000;fill-opacity:0.94117647;stroke:#441650;stroke-width:0.88582677;stroke-linejoin:round;stroke-miterlimit:4;stroke-opacity:1;stroke-dasharray:none;stroke-dashoffset:0" />
    <rect
       style="fill:#000000;fill-opacity:0.94117647;stroke:#441650;stroke-width:0.88582677;stroke-linejoin:round;stroke-miterlimit:4;stroke-opacity:1;stroke-dasharray:none;stroke-dashoffset:0"
       id="rect3956"
       width="7.0866141"
       height="7.0866141"
       x="234.43668"
       y="160.19449"
       ry="0"
       transform="matrix(0.70710678,0.70710678,-0.70710678,0.70710678,0,0)" />
  </g>
  <g
     inkscape:groupmode="layer"
     id="layer7"
     inkscape:label="Natalie + Colin 2"
     style="display:inline"
     sodipodi:insensitive="true">
    <path
       style="fill:#6d3353;fill-opacity:1"
       d="m 139.21875,65.1875 c 14.82562,8.89985 31.43779,13.165662 48.03125,12.125 13.34281,-0.83679 24.46835,-3.27844 51.46875,-11.34375 0.95901,-0.286468 1.73695,-0.509306 2.65625,-0.78125 l -14.53125,0 c -29.08143,7.41514 -34.53773,8.210786 -47.96875,8.28125 -7.6518,0.04016 -12.38946,-0.32853 -16.875,-1.28125 -6.5315,-1.387268 -13.16395,-3.796116 -19.4375,-7 l -3.34375,0 z m 192.5625,0 c 8.14396,6.148671 11.67481,14.580102 9.4375,23.90625 -0.72513,3.0227 -1.3074,3.83298 -3.5625,5.03125 -3.92408,2.0851 -12.13358,8.73368 -19.28125,15.65625 -5.96344,5.77564 -6.46393,6.11133 -11.375,7.1875 -7.04816,1.54447 -21.70223,0.95759 -31.75,-1.25 -4.13911,-0.9094 -7.53125,-1.90667 -7.53125,-2.21875 0,-0.31208 2.51305,-2.57212 5.59375,-5.03125 l 5.625,-4.46875 -4.375,0 c -4.27473,0 -4.49608,0.0998 -8.875,4.0625 l -4.46875,4.03125 -8.6875,-2.625 c -11.21325,-3.40739 -24.44251,-6.62657 -31.78125,-7.75 -4.98604,-0.76328 -5.84366,-1.12468 -6.03125,-2.4375 -0.2922,-2.044868 -4.22092,-2.372322 -10.1875,-0.84375 -2.45876,0.629903 -5.44617,1.15625 -6.625,1.15625 -1.17883,0 -2.03845,0.35487 -1.9375,0.78125 0.10096,0.42638 -1.69369,1.52876 -3.96875,2.46875 l -4.125,1.71875 -0.375,-2.84375 c -0.57164,-4.261945 -3.07434,-7.66024 -7,-9.59375 -3.06719,-1.51069 -4.48887,-1.7014 -12.625,-1.6875 -10.53673,0.01799 -18.35899,1.41393 -28,5.03125 -20.15609,7.56261 -35.46932,22.63534 -30.21875,29.71875 8.00482,10.79911 46.33747,-3.20672 58.59375,-21.40625 3.2139,-4.77238 2.53396,-5.949485 -0.96875,-1.65625 -9.87534,12.1041 -34.12748,24.75675 -47.625,24.84375 -6.81414,0.0439 -9.0625,-1.26206 -9.0625,-5.21875 0,-3.15094 1.05959,-4.93724 5.8125,-9.9375 6.07178,-6.38776 16.602,-12.591212 27.6875,-16.3125 16.71452,-5.61088 35.36431,-5.39032 38.5,0.46875 1.13252,2.11613 1.03137,7.52523 -0.1875,9.96875 -0.59462,1.19205 -3.80019,3.52713 -8.65625,6.3125 -27.37173,15.69999 -49.83997,34.81918 -44.71875,38.0625 3.11194,1.97082 14.34135,-0.43902 23.78125,-5.125 15.5599,-7.72394 30.26788,-23.26738 33.53125,-35.46875 0.85463,-3.19536 1.20388,-3.56684 5.09375,-5.3125 4.37146,-1.96181 14.6011,-3.06427 18.53125,-2 1.73504,0.46984 1.21604,1.02376 -7.59375,8.09375 -22.2078,17.82209 -31.78527,31.7715 -30.59375,44.53125 0.23576,2.52472 1.16553,6.09126 2.0625,7.9375 l 1.625,3.34375 -3.9375,3.53125 c -5.79803,5.20791 -11.11261,14.14017 -10.8125,17.46875 l 2.75,0 c 0.005,-0.0761 -4e-5,-0.13718 0,-0.21875 0.002,-3.60096 6.75732,-14.30698 11.21875,-17.78125 l 2.03125,-1.5625 2.875,2.59375 c 1.5866,1.43341 4.155,3.25068 5.6875,4.03125 15.39336,7.84056 41.35425,4.52692 47.9375,-6.125 5.03028,-8.13916 -2.61777,-13.7619 -18.65625,-13.6875 -11.8888,0.0552 -21.92468,2.56864 -32.46875,8.09375 l -5.53125,2.90625 -0.96875,-2.34375 c -4.42333,-10.61969 -0.95144,-17.11163 21.71875,-40.59375 7.17661,-7.43364 13.98684,-14.98494 15.125,-16.78125 1.13815,-1.79632 2.55052,-3.26815 3.15625,-3.28125 5.78459,-0.1253 41.3326,8.23979 43.5625,10.25 0.32699,0.29478 -3.15169,3.7779 -7.71875,7.75 -12.10722,10.52999 -19.8774,18.53414 -21.96875,22.6875 -1.74781,3.47109 -2.08409,3.72769 -6.9375,5.28125 -8.0019,2.56137 -10.75236,2.07424 -8.96875,-1.59375 0.39272,-0.80763 5.29854,-6.09377 10.90625,-11.75 l 10.21875,-10.28125 -8.625,0.25 c -12.58099,0.35869 -18.89103,2.23753 -26.71875,7.9375 -3.9191,2.8538 -8.47223,9.10045 -9.15625,12.5625 -1.30288,6.59439 5.68763,5.84099 17.125,-1.84375 6.42809,-4.31901 6.63335,-4.36888 4.0625,-1.25 -2.93767,3.56391 -3.14454,6.43318 -0.5625,8.125 2.18482,1.43155 6.5776,0.97351 12.6875,-1.3125 3.60891,-1.35026 4.06119,-1.3571 5.25,-0.28125 0.71223,0.64456 2.01841,1.15625 2.9375,1.15625 2.08069,0 7.50036,-2.69041 13.15625,-6.53125 l 4.3125,-2.90625 -1.1875,3.25 c -2.91247,8.09923 4.32582,8.00365 16.5625,-0.21875 6.46159,-4.34185 6.69792,-4.40264 4.125,-1.28125 -2.93767,3.56391 -3.14454,6.43318 -0.5625,8.125 2.16985,1.42175 6.66308,0.96904 12.46875,-1.25 3.48227,-1.33098 3.79454,-1.33514 6,-0.15625 3.20895,1.7153 6.40544,0.64443 14.90625,-4.9375 l 6.71875,-4.40625 -1.875,3.21875 c -2.26427,3.86369 -2.35658,5.70669 -0.375,7.5 1.37194,1.24158 1.86545,1.26667 6.03125,0.40625 2.50207,-0.5168 6.5093,-1.74478 8.90625,-2.71875 5.13765,-2.08762 4.84375,-2.03984 4.84375,-0.71875 0,2.22388 2.23198,3.375 6.59375,3.375 9.13809,0 17.68587,-4.2034 34.0625,-16.75 l 9.4375,-7.25 4.75,1.3125 c 2.61305,0.72458 6.70447,1.54219 9.09375,1.8125 2.38928,0.27031 4.34375,0.68156 4.34375,0.90625 0,0.22467 -0.62408,1.07259 -1.40625,1.90625 -1.29182,1.37683 -2.03862,1.48972 -8.125,1.15625 -6.34845,-0.34781 -6.79115,-0.27878 -8.3125,1.375 l -1.59375,1.75 7.125,-0.34375 c 8.17946,-0.40931 8.23395,-0.33623 2.59375,5.15625 -2.52158,2.45554 -3.20312,3.57925 -2.9375,4.96875 0.18829,0.98502 0.5966,1.78125 0.90625,1.78125 0.30965,0 2.5922,-2.78744 5.0625,-6.1875 l 4.5,-6.1875 6.78125,0.40625 c 6.3922,0.37555 6.86779,0.31726 8.25,-1.25 l 1.46875,-1.6875 -7.125,0.4375 -7.15625,0.40625 1.28125,-1.75 c 1.15527,-1.58927 1.83113,-1.74875 7.15625,-1.78125 5.59674,-0.0341 16.76896,-0.99361 22.46875,-1.90625 l 2.65625,-0.40625 -1.34375,3.90625 c -0.74138,2.14656 -1.3619,4.81404 -1.375,5.9375 -0.0606,5.16823 4.20612,10.04429 10.40625,11.875 l 3.15625,0.9375 -0.25,4.6875 c -0.65499,13.40595 8.0862,24.14353 22.34375,27.5 6.1491,1.4476 19.55526,1.05372 26.34375,-0.78125 6.15453,-1.6636 18.48216,-7.79238 22.3125,-11.09375 2.78318,-2.39882 3.04257,-2.88551 2.03125,-3.625 -0.9608,-0.70256 -1.83409,-0.21887 -5.03125,2.75 -4.80493,4.46184 -15.36425,9.78199 -22.25,11.21875 -18.46359,3.8526 -35.85531,-1.72556 -41.21875,-13.21875 -1.90052,-4.07257 -2.31068,-10.74063 -0.90625,-14.625 0.77033,-2.13058 1.00567,-2.25167 4.15625,-2 7.68558,0.61391 19.85048,-2.57585 30.15625,-7.9375 15.35783,-7.99002 23.95238,-22.2306 15.53125,-25.71875 -1.95342,-0.80913 -3.47753,-0.78009 -9.5625,0.21875 -9.45162,1.55147 -17.28981,4.65369 -25.5,10.0625 -8.88767,5.85512 -12.67414,10.26144 -17.53125,20.40625 -0.0618,0.12913 -1.42519,-0.41534 -3,-1.21875 -5.95613,-3.03859 -5.99318,-9.48111 -0.125,-18.15625 1.94346,-2.87311 2.47599,-3.1683 12.6875,-6.5 18.49809,-6.03536 37.83197,-16.71727 47.65625,-26.375 7.74477,-7.61343 8.33927,-10.75 2.0625,-10.75 -11.82882,0 -29.29516,6.318565 -43.75,15.8125 l -5.125,3.34375 -5.5,-2.59375 C 419.3934,91.414495 389.85557,89.05918 373.625,97.3125 c -12.90098,6.56023 -14.97155,19.35362 -4.21875,26.125 2.88815,1.81876 3.23376,2.2385 2.09375,2.65625 -14.05244,5.14943 -19.89059,7.48683 -28.375,11.34375 -9.87969,4.49121 -10.11419,4.58045 -8.4375,2.40625 1.32178,-1.71399 3.01935,-2.62352 7.25,-3.84375 8.26967,-2.38523 14.64599,-6.91414 13.59375,-9.65625 -0.41698,-1.08663 -0.0708,-1.17596 2.6875,-0.6875 5.00925,0.88706 5.99142,0.80293 6.25,-0.46875 0.33228,-1.6342 -2.43698,-2.2198 -10.125,-2.1875 -7.01317,0.0295 -15.06708,1.47438 -22.96875,4.15625 -2.90299,0.98529 -5.43834,1.8095 -5.625,1.8125 -0.18665,0.003 0.82065,-0.99246 2.21875,-2.1875 L 330.5,124.625 l -4.15625,-0.0313 -4.15625,-0.0313 -4.34375,4.75 c -2.3906,2.60892 -5.14835,5.05401 -6.125,5.4375 -0.97666,0.38348 -6.41562,2.8027 -12.09375,5.40625 l -10.34375,4.75 7.78125,-7.65625 c 4.26478,-4.21269 9.56026,-8.67874 11.78125,-9.9375 13.25404,-7.51186 27.3837,-19.30534 32.28125,-26.9375 2.39251,-3.728415 2.8418,-6.45893 1.1875,-7.09375 -0.81377,-0.31226 -0.86237,-0.95782 -0.28125,-3.0625 1.20608,-4.368077 0.42482,-12.52125 -1.59375,-16.6875 -1.42722,-2.945731 -3.75425,-5.79845 -6.6875,-8.34375 l -1.96875,0 z M 499.25,88.34375 c 1.10383,-0.0037 1.21875,0.348406 1.21875,1.1875 0,0.81188 -2.18655,3.58007 -5,6.34375 -9.82424,9.65044 -27.19573,19.52603 -45.1875,25.6875 -4.78972,1.64029 -9.08219,3 -9.53125,3 -1.10491,0 8.27804,-9.45124 14.1875,-14.28125 C 468.64992,99.07359 485.71944,90.09346 496,88.6875 c 1.55635,-0.212846 2.5877,-0.341553 3.25,-0.34375 z m 71.84375,4.78125 c -0.15777,-0.0069 -0.32428,0.01425 -0.5,0.03125 -1.40573,0.136013 -3.37491,1.04495 -5.875,2.6875 -4.81708,3.164805 -20.46011,16.951 -21.5625,19 -0.37753,0.70171 -5.21245,5.39096 -10.71875,10.4375 -5.50631,5.04653 -11.5117,11.08314 -13.375,13.40625 -3.18751,3.9741 -3.59306,4.21875 -6.59375,4.21875 -1.7541,0 -3.1875,-0.18109 -3.1875,-0.40625 0,-0.22514 1.96293,-2.75948 4.375,-5.625 7.56684,-8.98942 7.62199,-12.86751 0.125,-12.09375 -10.13039,1.04555 -23.30094,11.72258 -25.34375,20.53125 -0.3657,1.57695 -0.0669,2.43309 1.34375,3.84375 1.00102,1.00101 2.50479,1.84375 3.34375,1.84375 2.16194,0 6.02001,-1.74023 10.03125,-4.5 2.91776,-2.00747 4.15404,-2.39 7.9375,-2.4375 L 515.5625,144 l -0.28125,2.375 c -0.22925,1.97004 0.0338,2.52498 1.625,3.25 2.80393,1.27755 6.45267,-0.0792 14.375,-5.28125 L 538,139.9375 l -1.875,3.21875 c -2.26427,3.86369 -2.35658,5.70669 -0.375,7.5 1.37106,1.24079 1.89039,1.26186 6.0625,0.40625 2.50746,-0.51423 7.695,-2.23891 11.53125,-3.84375 3.83625,-1.60484 7.45677,-3.10021 8.0625,-3.3125 1.22074,-0.42785 1.3002,-0.4852 -4.0625,3.96875 l -2.875,2.375 4.03125,0 c 3.97517,0 4.13073,-0.0716 8.4375,-4.4375 5.9526,-6.03433 12.65333,-10.47184 20.375,-13.5 l 6.46875,-2.53125 -7.375,7 c -5.95199,5.65936 -7.87598,8.01485 -10,12.3125 -2.1928,4.43683 -2.63305,6.13155 -2.65625,10.15625 -0.0603,10.4586 7.33214,17.79247 19.6875,19.53125 8.33746,1.17333 19.19696,-0.45547 26.4375,-3.96875 8.67259,-4.20814 14.84247,-12.61269 15.5,-21.15625 0.30128,-3.91469 0.047,-5.03165 -1.78125,-8.5 -2.98914,-5.67061 -6.77107,-7.64136 -13.8125,-7.1875 -3.39814,0.21903 -6.6028,0.99577 -9.46875,2.28125 -5.78281,2.59379 -4.75759,3.32217 1.28125,0.90625 8.34575,-3.33883 15.38485,-2.10957 18.28125,3.21875 2.14247,3.94136 1.50472,12.35508 -1.3125,17.53125 -3.74018,6.87195 -11.88901,12.79123 -20.25,14.71875 -4.84105,1.11604 -15.26775,0.96291 -19.5625,-0.3125 -4.71175,-1.39924 -9.54748,-5.05166 -11.75,-8.84375 -1.37402,-2.36566 -1.63841,-3.74932 -1.4375,-7.46875 0.32422,-6.0024 2.81682,-9.6109 12.96875,-18.6875 4.21484,-3.7684 8.53493,-8.33907 9.59375,-10.15625 1.66479,-2.85716 2.39446,-3.42299 5.53125,-4.21875 6.34593,-1.60989 14.37728,-2.20273 19.78125,-1.46875 7.6733,1.0422 8.01671,1.01978 8.28125,-0.28125 0.33229,-1.63419 -2.43698,-2.2198 -10.125,-2.1875 -5.88507,0.0248 -15.4827,1.52324 -19.53125,3.0625 -1.12901,0.42918 -2.26891,0.42193 -3.0625,-0.0313 -0.69333,-0.39587 -4.87052,-0.9738 -9.3125,-1.28125 -9.8267,-0.68015 -23.28572,1.15339 -33.9375,4.65625 -0.71966,0.23665 0.01,-0.74686 1.625,-2.1875 l 2.9375,-2.59375 -4.15625,-0.0313 c -4.12478,-0.0275 -4.16053,-0.0346 -8.15625,4.28125 -3.81426,4.11984 -4.46057,4.51843 -13.375,7.75 -5.15843,1.86997 -9.47254,3.3087 -9.59375,3.1875 -0.65739,-0.6574 10.1342,-10.60684 13.59375,-12.53125 17.17533,-9.55393 35.22452,-26.47975 34.40625,-32.25 -0.17144,-1.208979 -0.83311,-1.858021 -1.9375,-1.90625 z M 339.8125,94.28125 338.53125,96.75 c -1.74561,3.37568 -8.62356,10.43462 -12.71875,13.0625 -1.86814,1.19878 -4.69875,2.74504 -6.28125,3.40625 l -2.875,1.1875 1.125,-1.71875 c 1.70906,-2.61693 15.44394,-14.69496 18.9375,-16.65625 l 3.09375,-1.75 z m 230.53125,0.15625 c 0.1523,-0.01663 0.28405,-0.01535 0.40625,0 0.65173,0.08185 0.86756,0.606633 0.5625,1.65625 -1.6442,5.65708 -11.3513,15.7335 -22.375,23.21875 -8.51216,5.77987 -12.11951,7.92339 -11.375,6.71875 3.08682,-4.99458 13.13586,-16.94031 17.8125,-21.15625 7.06974,-6.373294 12.68424,-10.188116 14.96875,-10.4375 z M 341.53125,94.5 c 0.25512,0.02478 0.27795,0.530092 -0.0313,1.59375 -1.64419,5.65708 -11.3513,15.7335 -22.375,23.21875 -12.94303,8.78849 -13.18487,8.84318 -7.4375,1.34375 2.66875,-3.48232 4.25764,-4.71794 9.3125,-7.1875 7.11303,-3.47508 14.31643,-9.73375 17.5625,-15.25 1.43642,-2.441013 2.54355,-3.760049 2.96875,-3.71875 z m 63.125,2.28125 c 15.47496,-0.147877 27.29829,2.16331 39.71875,7.65625 l 4.25,1.875 -3.625,3 c -5.01842,4.16511 -12.1514,11.73677 -14.3125,15.1875 -1.99528,3.18597 -1.86596,3.11842 -14.65625,4.4375 -3.83625,0.39564 -9.43429,0.743 -12.4375,0.75 l -5.4375,0 2,-2.09375 c 1.57774,-1.64682 1.91638,-2.52802 1.53125,-4.0625 -0.34318,-1.36735 -0.75326,-1.74006 -1.34375,-1.25 -0.46489,0.38582 -3.85879,0.6875 -7.53125,0.6875 -3.67246,0 -7.87419,0.22431 -9.34375,0.5 -1.46958,0.27569 -2.6875,0.33565 -2.6875,0.125 0,-0.72018 9.76782,-6.53868 14.625,-8.71875 2.6676,-1.1973 6.95052,-2.65111 9.53125,-3.25 5.83567,-1.35425 16.10358,-1.39756 21.1875,-0.0625 3.61954,0.95051 3.85872,0.95627 4.28125,-0.375 0.24629,-0.77689 0.25082,-1.62419 0,-1.875 -0.25081,-0.25081 -4.36414,-0.61151 -9.125,-0.78125 -13.82973,-0.49308 -23.57946,2.62666 -38.53125,12.3125 -3.7674,2.44054 -7.11206,4.4375 -7.40625,4.4375 -1.36293,0 -7.13951,-4.68803 -8.125,-6.59375 -3.10365,-6.00181 0.20815,-12.7833 8.1875,-16.78125 6.86396,-3.439113 13.24301,-4.68337 26.125,-5.0625 1.06543,-0.03136 2.09334,-0.05264 3.125,-0.0625 z m -194.875,2.0625 c 1.99525,0 3.625,0.346176 3.625,0.75 0,0.403824 -1.84893,0.71875 -4.09375,0.71875 -2.53402,0 -3.90672,-0.26291 -3.625,-0.71875 0.24958,-0.403824 2.09851,-0.75 4.09375,-0.75 z M 180.1875,110.1875 c 0.18858,0.18858 -1.24264,2.5994 -3.1875,5.34375 -7.38322,10.4183 -23.61544,24.50041 -34.4375,29.90625 -7.13654,3.56484 -12.875,4.68656 -12.875,2.5 0,-2.31669 14.21858,-14.79668 26.8125,-23.53125 7.59816,-5.26974 23.24445,-14.6618 23.6875,-14.21875 z m 160.1875,3.4375 c -0.58847,0.006 -1.40882,0.0457 -2.5,0.0937 -4.27936,0.18826 -4.44317,0.25931 -6.0625,3.125 -0.91274,1.61526 -1.64925,3.20105 -1.65625,3.53125 -0.0136,0.67397 7.74226,-3.43489 10.375,-5.5 1.27293,-0.99847 1.60915,-1.26706 -0.15625,-1.25 z m 229.78125,0 c -0.58847,0.006 -1.40882,0.0457 -2.5,0.0937 -4.27936,0.18826 -4.41192,0.25931 -6.03125,3.125 -0.91274,1.61526 -1.64925,3.20105 -1.65625,3.53125 -0.0136,0.67397 7.74226,-3.43489 10.375,-5.5 1.27293,-0.99847 1.5779,-1.26706 -0.1875,-1.25 z m -304.25,0.78125 7.25,1.75 c 10.86949,2.6277 20.47214,3.47508 28.65625,2.5625 3.78759,-0.42235 7.50329,-0.95225 8.25,-1.1875 0.74671,-0.23526 -0.11618,0.91167 -1.90625,2.53125 l -3.25,2.9375 -7.03125,0 c -3.86383,0 -9.50311,0.49328 -12.53125,1.125 -3.02813,0.63173 -6.61367,1.15592 -7.96875,1.15625 -5.71148,0.001 -14.23373,3.137 -20.28125,7.4375 -1.61526,1.14864 -7.67051,4.24152 -13.4375,6.875 -10.51106,4.79985 -11.15625,5.06899 -11.15625,4.46875 0,-0.29366 16.70691,-15.21011 28.625,-25.53125 l 4.78125,-4.125 z m 224.8125,5.625 c 0.36547,-0.005 0.72166,0.009 1.0625,0.0313 2.70562,0.17862 1.74776,6.75824 -1.65625,11.40625 -5.04232,6.88505 -17.97807,14.5814 -29,17.25 -6.72249,1.62768 -11.39334,2.12507 -14.90625,1.5625 l -2.46875,-0.4063 2.90625,-3.6875 c 9.95981,-12.579 32.73292,-25.98605 44.0625,-26.15625 z m -198.25,4.5 L 296.8125,125 c 2.38008,0.26836 4.43959,0.58703 4.59375,0.71875 0.15417,0.13173 -2.75439,3.24806 -6.46875,6.90625 -4.65303,4.58269 -7.29629,7.86499 -8.53125,10.5625 -1.77547,3.87815 -1.85784,3.93885 -7.125,5.5 -6.06513,1.79765 -8.3436,1.97004 -8.8125,0.65625 -0.64504,-1.80734 1.69734,-4.75202 11.78125,-14.71875 l 10.21875,-10.09375 z m 60.78125,0.125 -4.75,1.25 c -9.42279,2.48293 -17.9169,8.83953 -21.65625,16.21875 -1.65794,3.27179 -2.14103,3.67578 -7.0625,5.5 -2.91726,1.08132 -6.71205,2.14279 -8.40625,2.375 -5.28904,0.72495 -5.10043,-1.35519 0.71875,-8.09375 6.62661,-7.67356 11.55957,-11.24481 18.28125,-13.25 6.87316,-2.05038 12.17277,-3.09384 18.46875,-3.625 l 4.40625,-0.375 z m 36.96875,0.5 c 2.65569,0.0285 4.99649,0.18992 5.875,0.46875 1.48269,0.47059 1.48459,0.5878 0.375,2.28125 -0.64512,0.98457 -1.54168,1.748 -2,1.6875 -0.45833,-0.0605 -1.8198,-0.25507 -3.03125,-0.40625 -1.21144,-0.15118 -4.65525,-0.79769 -7.65625,-1.4375 -4.21249,-0.89809 -5.15615,-1.30166 -4.1875,-1.84375 0.90191,-0.50473 6.19886,-0.79751 10.625,-0.75 z m -163.25,0.6875 -4.75,4.90625 c -4.64612,4.77109 -16.48926,13.42683 -22.40625,16.375 -4.00259,1.99431 -6.96875,2.65654 -6.96875,1.5625 0,-1.84952 6.20376,-8.97877 11.5,-13.1875 7.21516,-5.73362 13.30371,-8.75296 18.53125,-9.25 l 4.09375,-0.40625 z m 289.4375,0 c 1.10242,-0.0621 1.28476,0.3106 1.1875,1.78125 -0.19712,2.98106 -3.7961,7.9375 -5.75,7.9375 -2.5367,0 -5.36462,2.67428 -5.625,5.28125 -0.18288,1.83104 -1.04534,2.85119 -4.3125,5.15625 -4.8349,3.41111 -10.254,4.65649 -10.25,2.34375 0.004,-2.20592 2.3518,-5.46256 7.78125,-10.8125 5.74263,-5.65854 13.70983,-11.31856 16.4375,-11.65625 0.1975,-0.0245 0.37376,-0.0224 0.53125,-0.0313 z M 284.25,125.875 l -4.78125,4.875 c -4.65357,4.76317 -16.48314,13.43935 -22.375,16.375 -4.17589,2.08066 -7,2.67191 -7,1.46875 0,-1.94105 7.12635,-9.7397 13,-14.21875 5.87901,-4.48314 10.28529,-6.37962 18.59375,-8 l 2.5625,-0.5 z m 68.90625,0.875 2.21875,0 -2.03125,2.125 c -1.10916,1.15771 -3.73122,2.93434 -5.84375,3.96875 -2.11254,1.0344 -4.80511,2.115 -6,2.40625 l -2.1875,0.53125 1.46875,-1.6875 c 2.53697,-2.92079 9.99121,-7.34375 12.375,-7.34375 z m 232.3125,0.0313 c 1.46382,6.8e-4 3.07403,0.22823 3.75,0.65625 0.78923,0.49973 0.51608,0.91431 -1.28125,1.84375 -1.36119,0.7039 -2.13805,1.55505 -1.84375,2.03125 0.31429,0.50853 0.17939,0.59263 -0.375,0.25 -0.502,-0.31026 -2.06474,0.25004 -3.59375,1.25 -4.84127,3.16611 -5.43176,2.90662 -2.34375,-1 1.61436,-2.04232 2.90625,-4.00745 2.90625,-4.375 0,-0.42773 1.31743,-0.65693 2.78125,-0.65625 z M 576.03125,127 c 4.02161,-0.13558 3.11097,0.89764 -4.09375,8 -5.22112,5.14694 -6.50953,5.98119 -14.21875,9.28125 -4.66231,1.99579 -10.2626,4.16662 -12.4375,4.8125 -9.42738,2.79962 -10.29057,0.78216 -3.15625,-7.40625 7.046,-8.087 9.67907,-9.82035 18.75,-12.15625 4.44212,-1.14391 10.37911,-2.22107 13.15625,-2.40625 0.77287,-0.0515 1.42548,-0.10563 2,-0.125 z m -202.6875,0.0625 c 0.0802,-0.001 0.0937,0.0333 0.0937,0.0625 0,0.56387 -18.093,13.95226 -22.25,16.46875 -2.49855,1.51253 -6.34151,3.43277 -8.5625,4.25 -9.05255,3.33098 -14.55485,2.64181 -12.625,-1.59375 0.68908,-1.51237 2.99007,-2.99215 9.875,-6.25 4.94102,-2.33801 12.1325,-5.49652 15.96875,-7.03125 6.47209,-2.58923 16.29726,-5.88912 17.5,-5.90625 z M 575,127.625 c -0.31991,-0.31991 -15.0625,9.37558 -15.0625,9.90625 0,0.75998 1.87877,-0.29285 8.25,-4.65625 3.93506,-2.69496 7.00586,-5.05663 6.8125,-5.25 z m 17.5625,0.65625 c 0.14867,-0.0176 0.28006,-0.002 0.40625,0 1.36559,0.022 0.91869,0.37101 -1.8125,1.4375 -4.60362,1.79758 -4.9758,1.79472 -2.21875,-0.0313 1.06002,-0.70202 2.58431,-1.28303 3.625,-1.40625 z m -280.78125,7.6875 c 0,0.57577 -15.61495,10.7586 -18.0625,11.78125 -1.35466,0.56601 -3.28258,1.03125 -4.28125,1.03125 -1.89474,0 -3.10998,-1.06399 -2,-1.75 1.62431,-1.00388 24.34375,-11.32901 24.34375,-11.0625 z m 229.59375,0 c 0.13998,-0.0287 0.21875,-0.0213 0.21875,0 0,0.58244 -15.59197,10.749 -18.0625,11.78125 -2.84253,1.18768 -5.90573,1.35585 -6.53125,0.34375 -0.2375,-0.38429 0.50274,-1.71642 1.625,-2.9375 1.55805,-1.69526 4.51105,-3.05765 12.5,-5.84375 5.03508,-1.75594 9.27016,-3.14313 10.25,-3.34375 z M 252.03125,137.25 c 0.36603,0.36603 -11.0709,7.99552 -15,10 -3.73629,1.90611 -6.20799,2.03324 -5.875,0.3125 0.14991,-0.77471 3.97198,-2.9531 10.40625,-5.90625 5.60367,-2.57192 10.31403,-4.56097 10.46875,-4.40625 z m -36.71875,18.46875 c 5.9003,0.008 11.09086,0.93451 14.5625,2.84375 2.48345,1.36577 3.00462,2.0545 3.1875,4.21875 0.49387,5.84483 -7.0768,11.41922 -18.4375,13.5625 -5.38617,1.01614 -12.19403,1.28832 -15.5625,0.625 -0.80763,-0.15905 -3.27901,-0.65199 -5.5,-1.09375 -4.67622,-0.9301 -11.58237,-4.39123 -14.0625,-7.03125 -1.70448,-1.81435 -1.7087,-1.84326 -0.25,-2.9375 0.80764,-0.60583 3.27902,-2.0249 5.5,-3.15625 8.94359,-4.55575 20.72866,-7.04456 30.5625,-7.03125 z"
       id="path3892"
       inkscape:connector-curvature="0" />
  </g>
  <g
     inkscape:groupmode="layer"
     id="layer5"
     inkscape:label="Natalie + Colin"
     style="display:none"
     sodipodi:insensitive="true">
    <path
       style="fill:#6d3353;fill-opacity:1"
       d="m 149.92911,185.41937 c 0.0214,-3.83518 5.04173,-12.11505 10.89425,-17.96758 l 6.16412,-6.16411 -1.74964,-3.49178 c -4.03929,-8.06121 -3.13136,-18.5103 2.48719,-28.6249 4.39545,-7.91271 16.68783,-20.65807 31.36164,-32.51732 14.08819,-11.385946 15.01294,-13.88672 4.48224,-12.121113 -5.78887,0.970587 -8.62007,1.836589 -16.78684,5.134739 -5.66175,2.286508 -6.48968,2.956472 -7.47847,6.051554 -7.72277,24.17388 -39.68096,48.87139 -61.43086,47.47423 -7.07646,-0.45458 -6.60163,-2.47171 2.73925,-11.63667 9.22687,-9.05311 23.78434,-19.61798 41.07775,-29.81156 12.63629,-7.44846 14.83841,-9.761953 14.82889,-15.578757 -0.005,-3.705307 -3.3643,-8.053662 -7.19666,-9.318452 -5.27663,-1.741447 -24.72794,-0.652547 -33.65341,1.88395 -9.81593,2.789552 -24.98412,10.37106 -31.8278,15.908469 -6.306184,5.10252 -11.876047,12.60585 -11.876047,15.9986 0,5.72831 9.217327,7.73649 21.239747,4.62753 12.96864,-3.35366 31.72444,-14.24931 41.69889,-24.223759 3.09068,-3.090683 5.81953,-5.619417 6.0641,-5.619417 1.12947,0 -5.61056,8.540144 -9.92088,12.570536 -9.96671,9.31941 -23.69969,16.35604 -37.42739,19.17736 -8.5506,1.75732 -12.24264,1.86551 -17.150552,0.50252 -13.813419,-3.83612 -2.819547,-21.29752 20.843432,-33.105311 10.25952,-5.119481 22.00718,-8.413251 34.09045,-9.558139 18.65381,-1.767462 27.26682,1.922626 28.65563,12.277004 0.28302,2.110099 0.58896,3.836531 0.67989,3.836531 0.0909,0 3.77559,-1.449502 8.18814,-3.221124 9.14208,-3.670506 18.04414,-5.744806 20.84259,-4.856601 5.33485,1.693211 0.84201,8.809632 -17.69595,28.02949 -21.6915,22.48939 -26.95163,29.99901 -26.95163,38.47734 0,4.47367 2.2651,11.34548 3.5493,10.76776 0.39935,-0.17967 3.07752,-1.56154 5.95153,-3.07085 12.28231,-6.45015 27.04672,-9.68423 40.66601,-8.90769 9.32797,0.53186 16.42012,3.03833 18.24491,6.44799 2.93855,5.49073 -2.73467,13.58688 -11.93212,17.02808 -16.67445,6.23873 -36.90836,4.28678 -48.69557,-4.69763 l -5.04206,-3.84313 -2.38439,1.87554 c -5.3489,4.20746 -12.67505,15.89905 -12.69942,20.26667 -0.005,0.91446 -0.6506,1.66265 -1.43442,1.66265 -0.78382,0 -1.42094,-0.74819 -1.41584,-1.66265 z m 64.12141,-12.78212 c 9.30987,-1.99263 16.29783,-6.74199 18.51036,-12.58061 0.88746,-2.34192 0.76679,-3.19403 -0.74004,-5.22545 -2.98101,-4.0189 -7.86724,-5.20877 -21.09563,-5.13712 -9.99621,0.0542 -13.20058,0.46352 -20.24389,2.58636 -8.17122,2.4628 -15.36343,5.65762 -19.1846,8.52192 -1.88275,1.41131 -1.8784,1.44769 0.47504,3.97016 7.54097,8.08266 25.58132,11.43854 42.27876,7.86474 z M 126.08348,139.4671 c 8.14761,-3.53461 20.63314,-12.79695 30.56081,-22.67134 8.92515,-8.87728 16.73549,-18.6804 15.70449,-19.71141 -0.59877,-0.59878 -20.25108,11.36985 -30.02962,18.2886 -11.08201,7.84102 -23.96531,18.66338 -26.10504,21.929 -3.5303,5.38792 0.43526,6.25789 9.86936,2.16515 z m 365.50974,41.80902 c -5.03205,-1.18155 -12.85412,-5.19818 -16.11683,-8.27597 -5.98351,-5.64436 -10.04291,-17.18472 -8.7934,-24.99859 0.54032,-3.37903 0.39769,-3.67629 -2.03979,-4.25069 -4.3793,-1.03199 -9.35366,-4.20179 -11.01956,-7.02193 -1.9614,-3.3204 -2.03516,-10.36707 -0.1556,-14.86549 l 1.42149,-3.40209 -3.08414,0.58501 c -1.69626,0.32174 -9.79974,0.85762 -18.00772,1.19085 -14.33218,0.58186 -15.00993,0.69994 -17.10152,2.97944 l -2.17791,2.37355 8.31324,-0.56061 c 4.57229,-0.30835 8.31324,-0.20625 8.31324,0.22686 0,2.16064 -3.08818,2.95234 -10.55693,2.70642 l -7.93018,-0.26112 -5.17546,6.91031 c -3.60074,4.80772 -5.40904,6.54218 -5.94323,5.70049 -1.2722,-2.00455 -0.99256,-2.54106 4.19104,-8.04079 l 4.98794,-5.29214 -8.3779,0.68927 -8.37792,0.68926 1.25228,-2.03515 c 1.17597,-1.91111 1.74793,-1.99688 9.38519,-1.40736 7.88161,0.60839 8.17956,0.5566 9.64222,-1.67568 l 1.50929,-2.30346 -8.68756,-1.64232 c -13.59228,-2.56952 -22.34756,-7.34233 -25.88302,-14.10974 -4.39421,-8.41119 3.40279,-20.242102 16.13046,-24.475837 19.92152,-6.626685 49.4713,-3.532518 73.83363,7.731129 l 8.17201,3.778245 6.87395,-4.446745 C 501.027,78.173579 517.85311,71.868289 532.183,70.536357 c 10.48744,-0.974778 10.32769,2.431522 -0.59312,12.647395 -13.28852,12.430758 -37.52845,25.187838 -59.38458,31.253158 -6.42588,1.78324 -8.13116,3.40851 -11.60267,11.05816 -2.84754,6.27472 -2.49909,9.8788 1.32481,13.70272 1.77666,1.77666 3.80996,3.23029 4.51846,3.23029 0.70849,0 2.31112,-2.24459 3.56139,-4.98794 2.74378,-6.02044 12.59426,-15.95547 20.4162,-20.59146 11.65015,-6.90491 31.91023,-11.99622 37.37139,-9.39131 3.45406,1.64755 4.00836,6.6805 1.31682,11.95637 -6.42527,12.59453 -32.83335,25.86458 -51.47191,25.86458 -6.33065,0 -6.41786,0.0351 -7.44867,2.99202 -2.51236,7.20694 -0.16468,16.5989 5.64581,22.58621 14.73233,15.18065 47.12982,13.63977 67.73118,-3.22142 3.82246,-3.12851 5.84407,-4.2282 6.52364,-3.54863 1.46272,1.46271 -9.11046,8.88133 -17.83329,12.51266 -3.99802,1.66438 -10.10693,3.62764 -13.57534,4.3628 -6.99666,1.48299 -21.40066,1.65004 -27.0899,0.31416 z m 0.69479,-39.37996 c 21.34808,-5.41963 40.85932,-22.34237 37.08876,-32.16828 -1.72679,-4.49993 -18.69961,1.40929 -34.32522,11.9506 -8.08456,5.45398 -18.06491,14.58742 -20.49421,18.75509 l -1.71634,2.94458 6.80468,0 c 3.74256,0 9.43162,-0.66689 12.64233,-1.48199 z m -72.12562,-26.69564 c 2.63252,-4.16672 2.84704,-4.30294 3.71457,-2.35876 0.73329,1.64334 0.4693,2.54386 -1.29686,4.42383 l -2.21754,2.36046 8.50378,0 c 7.98329,0 22.61948,-1.37331 26.2194,-2.46015 0.88772,-0.26801 1.90345,-1.39914 2.25716,-2.51358 0.35372,-1.11445 5.07851,-6.46167 10.49953,-11.88269 5.42102,-5.42103 9.8564,-9.99267 9.8564,-10.159209 0,-0.563576 -9.53977,-4.411013 -15.47594,-6.241541 -11.85782,-3.656569 -23.04094,-4.9754 -38.2038,-4.505374 -12.04097,0.373249 -15.44341,0.82987 -21.93787,2.944167 -12.60306,4.102996 -18.4407,9.585747 -18.4407,17.319657 0,6.9654 10.59274,14.20505 24.08148,16.45861 9.09489,1.51946 9.39269,1.43842 12.44039,-3.38542 z m 59.79133,-4.49637 c 20.6559,-6.91607 39.10432,-17.384998 51.09376,-28.994168 4.10121,-3.971123 7.45675,-7.811867 7.45675,-8.534985 0,-1.038907 -1.12607,-1.182418 -5.36699,-0.683985 -14.5436,1.709315 -39.19111,16.127041 -57.20597,33.463018 -4.51456,4.34444 -7.62115,7.9153 -6.90351,7.93524 0.71763,0.0199 5.63431,-1.41334 10.92596,-3.18512 z m -139.89594,32.08186 c -2.2348,-1.56532 -2.46993,-4.9276 -0.63957,-9.14552 0.45481,-1.04808 -2.35262,0.26788 -7.60088,3.56282 -4.57713,2.87363 -8.79125,5.21961 -9.36469,5.21332 -0.57345,-0.007 0.69466,-1.00506 2.81801,-2.21947 7.50895,-4.2946 16.15263,-10.47531 21.07655,-15.07088 5.78397,-5.39828 13.31344,-9.13807 19.99002,-9.92882 5.74931,-0.68091 7.04841,0.70351 3.86414,4.11793 -2.3347,2.50342 -10.31028,6.96802 -12.41905,6.95197 -0.67055,-0.005 1.13226,-1.10224 4.00627,-2.43809 8.37473,-3.8926 12.62385,-8.86568 6.53445,-7.64779 -3.97888,0.79577 -13.45147,7.73529 -19.67661,14.41487 -6.43181,6.90135 -7.68678,9.46157 -5.64074,11.50759 2.56949,2.5695 9.71877,0.0827 21.14539,-7.3554 5.55266,-3.61445 10.3923,-6.57096 10.75474,-6.57001 0.36244,9.3e-4 -3.83016,3.00153 -9.31689,6.668 -13.17938,8.80703 -20.87562,11.20033 -25.53114,7.93948 z m 287.04178,0.91301 c -0.65319,-0.26357 -1.18761,-1.95999 -1.18761,-3.76981 0,-2.83442 0.88904,-4.12527 6.41308,-9.31144 17.60125,-16.52479 16.23324,-15.02005 13.06365,-14.36937 -2.09919,0.43094 -2.47473,0.33099 -1.42514,-0.37928 0.78383,-0.53042 2.3871,-0.97093 3.56282,-0.97895 1.77826,-0.0119 2.1377,0.50099 2.1377,3.05151 0,2.6609 -1.39451,4.40848 -10.55364,13.22569 -15.026,14.46507 -12.38727,15.91828 6.40939,3.52982 5.44125,-3.58621 10.19968,-6.52038 10.57428,-6.52038 1.21484,0 -18.00417,12.52074 -22.01498,14.34226 -4.03099,1.83065 -4.97247,1.98982 -6.97955,1.17995 z m -443.00172,-1.77613 c -1.91892,-2.31218 0.35298,-8.09822 5.3715,-13.67999 8.21192,-9.13363 16.14944,-12.41345 32.18183,-13.29771 6.27056,-0.34583 11.49291,-0.58921 11.60523,-0.54083 0.11225,0.0483 -5.12503,5.45986 -11.63852,12.02554 -6.51353,6.56565 -11.84276,12.60609 -11.84276,13.42316 0,0.81708 0.74819,1.68112 1.66265,1.92009 0.91447,0.23897 0.0459,0.48409 -1.92998,0.54471 -5.50274,0.1688 -5.78093,-2.61239 -0.93476,-9.34564 1.33834,-1.8595 0.46982,-1.51118 -4.29938,1.72419 -6.57146,4.45801 -15.00859,8.65799 -17.42173,8.67247 -0.85047,0.005 -2.08981,-0.64561 -2.75408,-1.44599 z m 10.95098,-2.59362 c 6.86692,-3.442 19.85483,-12.85834 25.14478,-18.23017 l 5.19301,-5.27339 -4.35279,0 c -8.38532,0 -24.65916,10.69726 -32.28145,21.21952 -4.2469,5.86267 -2.27215,6.57901 6.29645,2.28404 z m 32.78486,2.63213 c -1.09277,-1.3167 -0.99479,-2.23678 0.65371,-6.13866 l 1.93914,-4.58981 -7.85866,5.12252 c -4.32224,2.81739 -8.22062,5.1175 -8.66305,5.11134 -0.44241,-0.007 3.25722,-2.61757 8.2214,-5.80314 4.9642,-3.18559 11.80479,-8.4361 15.20134,-11.66782 3.39656,-3.23173 11.05622,-10.12579 17.02148,-15.32014 l 10.84592,-9.44426 -6.79051,-2.06498 c -15.18524,-4.617791 -27.0931,-5.045234 -37.97022,-1.36298 -2.72722,0.92326 -4.95859,1.32876 -4.95859,0.90111 0,-0.42765 2.45834,-1.53291 5.46298,-2.45612 8.86106,-2.722673 23.94449,-2.155186 36.03416,1.35574 l 9.66932,2.80802 4.17824,-4.17823 c 3.94842,-3.948406 4.43538,-4.161929 8.85314,-3.881863 l 4.6749,0.296356 -6.05859,4.750427 -6.05861,4.75043 3.68756,1.11459 c 5.21062,1.57493 15.56704,1.51032 20.20503,-0.12611 2.16162,-0.76265 5.85303,-2.70958 8.20315,-4.3265 3.80117,-2.61528 6.16041,-3.044111 6.15542,-1.11886 -0.003,1.28336 -8.15425,5.72956 -13.23439,7.21912 -6.40904,1.8792 -12.08689,1.89861 -19.85278,0.0678 -3.30631,-0.77945 -6.5834,-1.09379 -7.28242,-0.69852 -2.39843,1.35622 -34.44413,29.64569 -37.41532,33.0297 -10.50281,11.96204 8.97128,4.56482 24.29052,-9.22674 8.89255,-8.00575 15.13508,-10.30674 30.21902,-11.13867 6.27056,-0.34585 11.49291,-0.58922 11.60523,-0.54084 0.11225,0.0483 -5.12503,5.45987 -11.63852,12.02555 -6.51352,6.56564 -11.84274,12.60608 -11.84274,13.42315 0,0.81709 0.74817,1.68112 1.66264,1.92008 0.91446,0.23898 0.0459,0.48412 -1.92999,0.54473 -5.47797,0.16803 -5.7791,-2.6458 -0.99022,-9.2528 1.1819,-1.6306 -0.36108,-0.94298 -5.68969,2.53558 -9.07903,5.92684 -15.43885,8.5026 -17.6197,7.13605 -2.24007,-1.40365 -2.35022,-4.07773 -0.33029,-8.01941 l 1.76048,-3.43542 -8.48737,5.57311 c -4.66804,3.06519 -8.97499,5.57893 -9.57099,5.58606 -0.59599,0.007 -1.96857,0.25064 -3.05015,0.5411 -1.19322,0.32045 -2.47203,-0.081 -3.25198,-1.02074 z m 32.77094,-2.63213 c 6.86692,-3.442 19.85483,-12.85834 25.14479,-18.23017 l 5.193,-5.27339 -4.35279,0 c -8.38532,0 -24.65916,10.69726 -32.28143,21.21952 -4.24692,5.86267 -2.27219,6.57901 6.29643,2.28404 z m 54.5569,2.53587 c -1.06018,-1.27745 -0.89341,-2.19589 1.07128,-5.89936 1.27982,-2.4125 2.36919,-4.61752 2.42082,-4.90007 0.0516,-0.28253 3.73461,-4.25465 8.18442,-8.82693 7.89079,-8.10794 8.20007,-8.31323 12.52511,-8.31323 l 4.43454,0 -7.03585,6.13631 c -9.29737,8.10866 -18.67713,18.42086 -18.67713,20.53379 0,0.9312 0.7482,1.88862 1.66266,2.12758 1.07193,0.28014 0.77572,0.47366 -0.83376,0.54471 -1.37301,0.0605 -3.06147,-0.57064 -3.75209,-1.4028 z m 209.73851,0.12412 c -2.12198,-2.12196 -2.03087,-3.06824 0.85252,-8.85448 4.78469,-9.60158 17.5884,-18.34897 27.22912,-18.6027 4.46336,-0.11752 5.03091,0.0907 5.29444,1.94182 0.40408,2.83833 -1.71681,6.63641 -6.96615,12.47494 -3.51922,3.9142 -4.06031,4.92841 -2.6294,4.92841 4.93586,0 11.81851,-5.35285 30.67728,-23.85861 10.71219,-10.51168 21.96544,-21.207834 25.00721,-23.769212 12.58054,-10.593714 20.27379,-11.202386 14.3753,-1.137346 -5.3122,9.064578 -20.34945,21.981318 -35.46108,30.460418 -6.00934,3.37183 -26.72345,22.62555 -26.72345,24.83938 0,1.58902 5.36353,1.28769 8.83545,-0.4964 1.67234,-0.85935 5.53188,-3.24911 8.5768,-5.31059 3.04492,-2.06149 5.72347,-3.56088 5.95236,-3.332 0.51814,0.51814 -8.29618,6.41457 -13.7419,9.19276 -5.36266,2.73584 -10.91613,2.41495 -11.35217,-0.65594 -0.16738,-1.17879 0.33428,-3.42336 1.1148,-4.98795 0.78051,-1.56458 1.29031,-2.84469 1.13291,-2.84469 -0.15742,0 -1.82106,0.64131 -3.69701,1.42514 -1.87594,0.78381 -4.28445,1.42512 -5.35223,1.42512 -1.0678,0 -4.52807,1.76563 -7.68953,3.92362 -6.69439,4.56955 -12.81908,5.85451 -15.43527,3.23831 z m 10.08855,-1.1272 c 6.19908,-3.1926 9.21614,-6.13018 9.21614,-8.97335 0,-2.04347 0.69184,-3.07084 2.80307,-4.16261 1.54169,-0.79724 3.44759,-1.44952 4.23534,-1.44952 1.58604,0 6.26276,-7.33444 6.26276,-9.82184 0,-0.86854 -0.65833,-1.57918 -1.46297,-1.57918 -6.39907,0 -28.93972,20.04656 -28.93972,25.73759 0,2.31897 3.64269,2.43396 7.88538,0.24891 z m 65.70879,-38.3375 c 10.05249,-8.05101 18.56398,-18.200507 18.56398,-22.136525 0,-6.12714 -20.16547,10.031974 -32.70054,26.203785 -3.96164,5.11102 -7.20297,9.49793 -7.20297,9.74871 0,0.87403 15.64411,-9.25451 21.33953,-13.81597 z m -23.31264,39.34058 c -1.06019,-1.27745 -0.89342,-2.19589 1.07127,-5.89936 1.27982,-2.4125 2.36919,-4.61752 2.42082,-4.90007 0.0516,-0.28253 3.73461,-4.25465 8.18442,-8.82693 7.8908,-8.10794 8.20009,-8.31323 12.52512,-8.31323 l 4.43453,0 -7.03585,6.13631 c -9.29735,8.10866 -18.67712,18.42086 -18.67712,20.53379 0,0.9312 0.74819,1.88862 1.66263,2.12758 1.07196,0.28014 0.77575,0.47366 -0.83374,0.54471 -1.37302,0.0605 -3.06145,-0.57064 -3.75208,-1.4028 z m 22.44742,0.7381 c 0.49642,-0.42619 4.9722,-4.22585 9.9462,-8.44368 9.79702,-8.30764 17.08369,-15.7566 17.08369,-17.46418 0,-0.59013 -0.63997,-0.82738 -1.42216,-0.52724 -1.7994,0.6905 -15.0764,9.59689 -19.47969,13.06724 -4.67957,3.68809 -20.03081,13.19501 -21.28435,13.18125 -0.57345,-0.007 0.66752,-0.99549 2.75771,-2.19821 2.09017,-1.20272 11.80695,-7.61064 21.59281,-14.23982 17.11963,-11.59725 22.58609,-14.18325 22.58609,-10.68471 0,0.75258 -2.18297,4.21648 -4.85106,7.69754 l -4.85107,6.3292 6.98875,-4.70045 c 6.39705,-4.30248 12.42185,-7.86295 11.26414,-6.65674 -0.26127,0.27222 -5.60549,3.9285 -11.87605,8.12509 -6.27055,4.19658 -13.52262,9.80353 -16.11572,12.45989 -4.28382,4.38836 -5.10435,4.82973 -8.97829,4.82973 -2.34496,0 -3.85742,-0.34871 -3.361,-0.77491 z m -306.76632,-0.80855 c -1.05602,-1.05604 -0.70198,-4.43813 0.75748,-7.2361 0.92116,-1.76597 0.9981,-2.41343 0.23167,-1.94965 -0.63113,0.3819 -4.00136,2.53366 -7.48941,4.7817 -3.48805,2.24803 -6.69457,4.08169 -7.12563,4.07477 -0.43105,-0.007 3.3568,-2.67904 8.41744,-5.93804 7.12165,-4.58626 14.10019,-10.69045 30.87773,-27.00904 22.85137,-22.226273 27.10294,-25.970821 32.80222,-28.890296 7.0312,-3.601768 9.02057,-1.410931 4.97981,5.484114 -5.31219,9.064572 -20.34944,21.981312 -35.46107,30.460422 -6.00934,3.37183 -26.72347,22.62554 -26.72347,24.83937 0,1.58902 5.36354,1.28769 8.83547,-0.49639 1.67233,-0.85935 5.53189,-3.24912 8.5768,-5.31059 3.04491,-2.06149 5.72347,-3.56088 5.95234,-3.33201 0.51353,0.51353 -8.27735,6.40497 -13.63725,9.1394 -3.81631,1.94694 -9.6909,2.68557 -10.99413,1.38234 z m 45.40835,-39.27013 c 10.05248,-8.05101 18.56398,-18.200507 18.56398,-22.136525 0,-6.12714 -20.16548,10.031974 -32.70055,26.203785 -3.96163,5.11102 -7.20298,9.49793 -7.20298,9.74871 0,0.87403 15.64412,-9.25451 21.33955,-13.81597 z m 7.13009,2.91469 c 2.39616,-4.69686 2.58576,-4.80137 7.51158,-4.1407 l 4.06785,0.54561 -6.3183,3.66549 c -3.47504,2.01601 -6.50925,3.66548 -6.74265,3.66548 -0.23341,0 0.43328,-1.68114 1.48152,-3.73588 z m 262.2232,0 c 2.39616,-4.69686 2.58577,-4.80137 7.51159,-4.1407 l 4.06784,0.54561 -6.31829,3.66549 c -3.47506,2.01601 -6.50925,3.66548 -6.74267,3.66548 -0.2334,0 0.43329,-1.68114 1.48153,-3.73588 z"
       id="path3854"
       inkscape:connector-curvature="0" />
  </g>
  <g
     inkscape:groupmode="layer"
     id="layer6"
     inkscape:label="Text">
    <text
       xml:space="preserve"
       style="font-size:45px;font-style:normal;font-variant:normal;font-weight:normal;font-stretch:normal;line-height:125%;letter-spacing:0px;word-spacing:0px;fill:#000000;fill-opacity:1;stroke:none;font-family:BenchNine;-inkscape-font-specification:BenchNine"
       x="80.818008"
       y="-36.687824"
       id="text3004"
       sodipodi:linespacing="125%"
       transform="matrix(0,1,-1,0,0,0)"><tspan
         sodipodi:role="line"
         id="tspan3006"
         x="80.818008"
         y="-36.687824">20<tspan
   style="font-size:32px"
   id="tspan3948">TH</tspan> MAY 2013</tspan></text>
    <text
       transform="matrix(0,-1,1,0,0,0)"
       sodipodi:linespacing="125%"
       id="text3008"
       y="707.01263"
       x="-247.77277"
       style="font-size:45px;font-style:normal;font-variant:normal;font-weight:normal;font-stretch:normal;line-height:125%;letter-spacing:0px;word-spacing:0px;fill:#000000;fill-opacity:1;stroke:none;font-family:BenchNine;-inkscape-font-specification:BenchNine"
       xml:space="preserve"><tspan
         y="707.01263"
         x="-247.77277"
         id="tspan3010"
         sodipodi:role="line">ADMIT TWO</tspan></text>
    <text
       xml:space="preserve"
       style="font-size:47.11561584px;font-style:normal;font-variant:normal;font-weight:normal;font-stretch:normal;line-height:125%;letter-spacing:0px;word-spacing:0px;fill:#000000;fill-opacity:1;stroke:none;font-family:BenchNine;-inkscape-font-specification:BenchNine"
       x="120.3604"
       y="237.00394"
       id="text3012"
       sodipodi:linespacing="125%"><tspan
         sodipodi:role="line"
         id="tspan3014"
         x="120.3604"
         y="237.00394">TWELVE O'CLOCK</tspan></text>
    <text
       sodipodi:linespacing="125%"
       id="text3016"
       y="278.43027"
       x="232.24806"
       style="font-size:22px;font-style:normal;font-weight:normal;line-height:125%;letter-spacing:0px;word-spacing:0px;fill:#000000;fill-opacity:1;stroke:none;font-family:Sans"
       xml:space="preserve"><tspan
         y="278.43027"
         x="232.24806"
         sodipodi:role="line"
         style="font-size:22px;font-style:normal;font-variant:normal;font-weight:bold;font-stretch:normal;text-align:center;text-anchor:middle;font-family:CopperplateTBolCon;-inkscape-font-specification:CopperplateTBolCon Bold"
         id="tspan3894">Whiteabbey Presbyterian</tspan></text>
    <text
       sodipodi:linespacing="125%"
       id="text3034"
       y="209.59827"
       x="386.44806"
       style="font-size:20px;font-style:normal;font-variant:normal;font-weight:bold;font-stretch:normal;line-height:125%;letter-spacing:0px;word-spacing:0px;fill:#808080;fill-opacity:1;stroke:none;font-family:CopperplateTBolCon;-inkscape-font-specification:CopperplateTBolCon Bold"
       xml:space="preserve"><tspan
         y="209.59827"
         x="386.44806"
         id="tspan3036"
         sodipodi:role="line">Followed By A Reception at</tspan></text>
    <text
       xml:space="preserve"
       style="font-size:46px;font-style:normal;font-variant:normal;font-weight:normal;font-stretch:normal;line-height:125%;letter-spacing:0px;word-spacing:0px;fill:#000000;fill-opacity:1;stroke:none;font-family:BenchNine;-inkscape-font-specification:BenchNine"
       x="512.53546"
       y="266.98483"
       id="text3038"
       sodipodi:linespacing="125%"><tspan
         style="font-size:46px;font-style:normal;font-variant:normal;font-weight:normal;font-stretch:normal;text-align:center;text-anchor:middle;font-family:BenchNine;-inkscape-font-specification:BenchNine"
         id="tspan3042"
         sodipodi:role="line"
         x="512.53546"
         y="266.98483">L<tspan
   style="font-size:46px;font-style:normal;font-variant:normal;font-weight:normal;font-stretch:normal;font-family:BenchNine;-inkscape-font-specification:BenchNine"
   id="tspan3789">ARCHFIELD EST</tspan>ATE</tspan></text>
    <text
       xml:space="preserve"
       style="font-size:16px;font-style:normal;font-variant:normal;font-weight:bold;font-stretch:normal;line-height:125%;letter-spacing:0px;word-spacing:0px;fill:#808080;fill-opacity:1;stroke:none;font-family:CopperplateTBolCon;-inkscape-font-specification:CopperplateTBolCon Bold"
       x="226.78552"
       y="325.98837"
       id="text3046"
       sodipodi:linespacing="125%"><tspan
         sodipodi:role="line"
         id="tspan3048"
         x="226.78552"
         y="325.98837"
         style="font-style:normal;font-variant:normal;font-weight:bold;font-stretch:normal;fill:#808080;font-family:CopperplateTBolCon;-inkscape-font-specification:CopperplateTBolCon Bold">PLEASE RSVP BY THE 20th MARCH 2013</tspan></text>
    <text
       xml:space="preserve"
       style="font-size:20px;font-style:normal;font-weight:normal;line-height:125%;letter-spacing:0px;word-spacing:0px;fill:#000000;fill-opacity:1;stroke:none;font-family:Sans"
       x="231.10451"
       y="295.9866"
       id="text3898"
       sodipodi:linespacing="125%"><tspan
         id="tspan3900"
         style="font-size:16px;font-style:normal;font-variant:normal;font-weight:bold;font-stretch:normal;text-align:center;text-anchor:middle;fill:#808080;font-family:CopperplateTBolCon;-inkscape-font-specification:CopperplateTBolCon Bold"
         sodipodi:role="line"
         x="231.10451"
         y="295.9866">602 Shore Road, Newtownabbey</tspan></text>
    <text
       sodipodi:linespacing="125%"
       id="text3906"
       y="288.19803"
       x="513.01544"
       style="font-size:20px;font-style:normal;font-weight:normal;line-height:125%;letter-spacing:0px;word-spacing:0px;fill:#000000;fill-opacity:1;stroke:none;font-family:Sans"
       xml:space="preserve"><tspan
         y="288.19803"
         x="513.01544"
         sodipodi:role="line"
         style="font-size:20px;font-style:normal;font-variant:normal;font-weight:bold;font-stretch:normal;text-align:center;text-anchor:middle;fill:#808080;font-family:CopperplateTBolCon;-inkscape-font-specification:CopperplateTBolCon Bold"
         id="tspan3908">Bailliesmills Road, Lisburn</tspan></text>
    <text
       xml:space="preserve"
       style="font-size:32px;font-style:normal;font-variant:normal;font-weight:bold;font-stretch:normal;line-height:125%;letter-spacing:0px;word-spacing:0px;fill:#000000;fill-opacity:1;stroke:none;font-family:Copperplate Extra Condensed SSi;-inkscape-font-specification:Copperplate Extra Condensed SSi Bold"
       x="190.41443"
       y="40.831974"
       id="text3932"
       sodipodi:linespacing="125%"><tspan
         sodipodi:role="line"
         id="tspan3934"
         x="190.41443"
         y="40.831974">alana, mark and evie magill</tspan></text>
    <text
       sodipodi:linespacing="125%"
       id="text3936"
       y="57.812939"
       x="372.04724"
       style="font-size:20px;font-style:normal;font-weight:normal;line-height:125%;letter-spacing:0px;word-spacing:0px;fill:#000000;fill-opacity:1;stroke:none;font-family:Sans"
       xml:space="preserve"><tspan
         y="57.812939"
         x="372.04724"
         sodipodi:role="line"
         style="font-size:16px;font-style:normal;font-variant:normal;font-weight:bold;font-stretch:normal;text-align:center;text-anchor:middle;fill:#808080;font-family:CopperplateTBolCon;-inkscape-font-specification:CopperplateTBolCon Bold"
         id="tspan3938">you are invited to celebrate the wedding of</tspan></text>
  </g>
  <g
     inkscape:groupmode="layer"
     id="layer4"
     inkscape:label="Punch Outline"
     sodipodi:insensitive="true">
    <path
       sodipodi:type="arc"
       style="fill:#cccccc;stroke:none"
       id="path3774"
       sodipodi:cx="6.9473691"
       sodipodi:cy="122.75021"
       sodipodi:rx="43.727558"
       sodipodi:ry="27.789476"
       d="m 50.674927,122.75021 a 43.727558,27.789476 0 1 1 -87.455116,0 43.727558,27.789476 0 1 1 87.455116,0 z"
       transform="matrix(1.2154716,0,0,1.9125804,-26.160867,-59.375961)" />
    <path
       transform="matrix(1.2154716,0,0,1.9125804,753.36669,-59.375961)"
       d="m 50.674927,122.75021 a 43.727558,27.789476 0 1 1 -87.455116,0 43.727558,27.789476 0 1 1 87.455116,0 z"
       sodipodi:ry="27.789476"
       sodipodi:rx="43.727558"
       sodipodi:cy="122.75021"
       sodipodi:cx="6.9473691"
       id="path3776"
       style="fill:#cccccc;stroke:none"
       sodipodi:type="arc" />
  </g>
</svg>
